<svg xmlns="http://www.w3.org/2000/svg" width="40" height="40" viewBox="0 0 40 40"><path d="M48,28A20,20,0,1,1,28,8,20,20,0,0,1,48,28ZM28.537,14.613a10.446,10.446,0,0,0-9.4,5.142.969.969,0,0,0,.219,1.311l2.8,2.122a.967.967,0,0,0,1.344-.171c1.441-1.827,2.428-2.887,4.621-2.887,1.648,0,3.685,1.06,3.685,2.658,0,1.208-1,1.828-2.624,2.74-1.9,1.063-4.407,2.387-4.407,5.7v.323a.968.968,0,0,0,.968.968h4.516a.968.968,0,0,0,.968-.968v-.108c0-2.3,6.709-2.391,6.709-8.6C37.934,18.161,33.082,14.613,28.537,14.613Zm-.537,20a3.71,3.71,0,1,0,3.71,3.71A3.714,3.714,0,0,0,28,34.613Z" transform="translate(-8 -8)" fill="#93c01f"/></svg>