<svg xmlns="http://www.w3.org/2000/svg" width="18.001" height="14.002" viewBox="0 0 18.001 14.002"><path d="M-4654.8-13607h-14.4a1.779,1.779,0,0,1-1.8-1.751v-10.5a1.778,1.778,0,0,1,1.8-1.75h14.4a1.778,1.778,0,0,1,1.8,1.75v10.5A1.778,1.778,0,0,1-4654.8-13607Zm-12.6-5.251a1.8,1.8,0,0,0-1.726,1.275,1.732,1.732,0,0,0,.79,1.962,1.832,1.832,0,0,0,.945.261,1.828,1.828,0,0,0,1.212-.456,1.724,1.724,0,0,0,.4-2.071l1.856-2.721c.032,0,.064,0,.1,0a1.929,1.929,0,0,0,.489-.063l1.4,1.356a1.734,1.734,0,0,0,.8,1.952,1.84,1.84,0,0,0,.935.256,1.826,1.826,0,0,0,1.219-.464,1.721,1.721,0,0,0,.39-2.068l1.883-2.721h.116a1.8,1.8,0,0,0,1.723-1.279,1.732,1.732,0,0,0-.787-1.962,1.834,1.834,0,0,0-.942-.26,1.822,1.822,0,0,0-1.214.458,1.72,1.72,0,0,0-.4,2.071l-1.853,2.722-.1,0a1.8,1.8,0,0,0-.482.064l-1.4-1.357a1.736,1.736,0,0,0-.8-1.952,1.845,1.845,0,0,0-.936-.256,1.831,1.831,0,0,0-1.217.461,1.731,1.731,0,0,0-.393,2.072l-1.87,2.721Z" transform="translate(4671.001 13621)" fill="#fff"/></svg>