<svg xmlns="http://www.w3.org/2000/svg" width="18" height="18" viewBox="0 0 18 18"><g transform="translate(-130 -233)"><g transform="translate(-1 -2)"><path d="M9.375,0H7.125A1.063,1.063,0,0,0,6,1.125v15.75A1.063,1.063,0,0,0,7.125,18h2.25A1.063,1.063,0,0,0,10.5,16.875V1.125A1.063,1.063,0,0,0,9.375,0Z" transform="translate(131.75 235)" fill="#fff"/><path d="M3.375,10H1.125A1.063,1.063,0,0,0,0,11.125v4.5A1.063,1.063,0,0,0,1.125,16.75h2.25A1.063,1.063,0,0,0,4.5,15.625v-4.5A1.063,1.063,0,0,0,3.375,10Z" transform="translate(131 236.25)" fill="#fff"/><path d="M15.375,5h-2.25A1.063,1.063,0,0,0,12,6.125V16.25a1.063,1.063,0,0,0,1.125,1.125h2.25A1.063,1.063,0,0,0,16.5,16.25V6.125A1.063,1.063,0,0,0,15.375,5Z" transform="translate(132.5 235.625)" fill="#fff"/></g></g></svg>