<?xml version="1.0" encoding="UTF-8"?>
<svg xmlns="http://www.w3.org/2000/svg" xmlns:xlink="http://www.w3.org/1999/xlink" width="18" height="18" viewBox="0 0 18 18" version="1.1">
<g id="surface1">
<path style=" stroke:none;fill-rule:nonzero;fill:rgb(100%,100%,100%);fill-opacity:1;" d="M 18 10.101562 L 18 7.898438 C 18 7.300781 17.601562 6.800781 17 6.800781 L 1.101562 6.800781 C 0.5 6.800781 0 7.199219 0 7.800781 L 0 10.101562 C 0 10.699219 0.398438 11.199219 1 11.199219 L 16.898438 11.199219 C 17.5 11.199219 18 10.800781 18 10.199219 C 18 10.199219 18 10.199219 18 10.101562 Z M 18 10.101562 "/>
<path style=" stroke:none;fill-rule:nonzero;fill:rgb(100%,100%,100%);fill-opacity:1;" d="M 18 16.898438 L 18 14.699219 C 18 14.101562 17.601562 13.601562 17 13.601562 L 1.101562 13.601562 C 0.5 13.601562 0 14 0 14.601562 L 0 16.898438 C 0 17.5 0.398438 18 1 18 L 16.898438 18 C 17.5 18 18 17.601562 18 17 Z M 18 16.898438 "/>
<path style=" stroke:none;fill-rule:nonzero;fill:rgb(100%,100%,100%);fill-opacity:1;" d="M 18 3.398438 L 18 1.199219 C 18 0.601562 17.601562 0.101562 17 0.101562 L 1.101562 0.101562 C 0.5 0.101562 0 0.5 0 1.101562 L 0 3.398438 C 0 4 0.398438 4.5 1 4.5 L 16.898438 4.5 C 17.5 4.5 18 4.101562 18 3.5 Z M 18 3.398438 "/>
</g>
</svg>
