<svg xmlns="http://www.w3.org/2000/svg" width="12" height="12" viewBox="0 0 12 12"><g transform="translate(-2600 -481)"><rect width="12" height="12" transform="translate(2600 481)" fill="none"/><path d="M5.357-4.308H.439v-1.37L2.068-7.645q.523-.641.8-1.039a3.184,3.184,0,0,0,.384-.669,1.535,1.535,0,0,0,.1-.547.668.668,0,0,0-.184-.514.665.665,0,0,0-.471-.171,1.164,1.164,0,0,0-.63.2,3.933,3.933,0,0,0-.722.641l-.994-1.3a5.079,5.079,0,0,1,.686-.657,2.837,2.837,0,0,1,.809-.442,3.186,3.186,0,0,1,1.066-.16,2.508,2.508,0,0,1,1.209.282,2.067,2.067,0,0,1,.815.773,2.154,2.154,0,0,1,.292,1.122,3.157,3.157,0,0,1-.184,1.1A4.18,4.18,0,0,1,4.471-8a13.914,13.914,0,0,1-1.03,1.2L2.8-6.065v.055H5.357Z" transform="translate(2603.143 494.808)" fill="#fff"/></g></svg>