<svg xmlns="http://www.w3.org/2000/svg" width="13" height="13" viewBox="0 0 13 13"><g transform="translate(-244.107 -441.904)"><path d="M21,14.5A6.5,6.5,0,1,1,14.5,8,6.5,6.5,0,0,1,21,14.5Zm-6.326-4.351A3.4,3.4,0,0,0,11.62,11.82a.315.315,0,0,0,.071.426l.909.69a.314.314,0,0,0,.437-.056c.468-.594.789-.938,1.5-.938.535,0,1.2.345,1.2.864,0,.393-.324.594-.853.891-.617.346-1.432.776-1.432,1.852v.1a.315.315,0,0,0,.315.315h1.468a.315.315,0,0,0,.315-.315v-.035c0-.746,2.18-.777,2.18-2.8A2.99,2.99,0,0,0,14.674,10.149Zm-.174,6.5a1.206,1.206,0,1,0,1.206,1.206A1.207,1.207,0,0,0,14.5,16.649Z" transform="translate(236.107 433.904)" fill="#b1b1b0"/></g></svg>