<svg xmlns="http://www.w3.org/2000/svg" width="20" height="17" viewBox="0 0 20 17"><g transform="translate(-1842 -214)"><g transform="translate(1842 215.105)" fill="#707070"><path d="M 18.82353019714355 1.710202574729919 L 1.176470041275024 1.710202574729919 C 0.8034600019454956 1.710202574729919 0.5 1.43875253200531 0.5 1.1051025390625 C 0.5 0.7714525461196899 0.8034600019454956 0.5000025629997253 1.176470041275024 0.5000025629997253 L 18.82353019714355 0.5000025629997253 C 19.19654083251953 0.5000025629997253 19.5 0.7714525461196899 19.5 1.1051025390625 C 19.5 1.43875253200531 19.19654083251953 1.710202574729919 18.82353019714355 1.710202574729919 Z" stroke="none"/><path d="M 1.176469802856445 1.000002503395081 C 1.070379257202148 1.000002503395081 1 1.063262581825256 1 1.1051025390625 C 1 1.146942496299744 1.070379257202148 1.210202574729919 1.176469802856445 1.210202574729919 L 18.82353019714355 1.210202574729919 C 18.92962074279785 1.210202574729919 19 1.146942496299744 19 1.1051025390625 C 19 1.063262581825256 18.92962074279785 1.000002503395081 18.82353019714355 1.000002503395081 L 1.176469802856445 1.000002503395081 M 1.176469802856445 2.622604370117188e-06 L 18.82353019714355 2.622604370117188e-06 C 19.47327041625977 2.622604370117188e-06 20 0.4947725534439087 20 1.1051025390625 C 20 1.715432524681091 19.47327041625977 2.21020245552063 18.82353019714355 2.21020245552063 L 1.176469802856445 2.21020245552063 C 0.5267200469970703 2.21020245552063 0 1.715432524681091 0 1.1051025390625 C 0 0.4947725534439087 0.5267200469970703 2.622604370117188e-06 1.176469802856445 2.622604370117188e-06 Z" stroke="none" fill="#707070"/></g><g transform="translate(1842 221.395)" fill="#707070"><path d="M 18.82353019714355 1.710202574729919 L 1.176470041275024 1.710202574729919 C 0.8034600019454956 1.710202574729919 0.5 1.43875253200531 0.5 1.1051025390625 C 0.5 0.7714525461196899 0.8034600019454956 0.5000025629997253 1.176470041275024 0.5000025629997253 L 18.82353019714355 0.5000025629997253 C 19.19654083251953 0.5000025629997253 19.5 0.7714525461196899 19.5 1.1051025390625 C 19.5 1.43875253200531 19.19654083251953 1.710202574729919 18.82353019714355 1.710202574729919 Z" stroke="none"/><path d="M 1.176469802856445 1.000002503395081 C 1.070379257202148 1.000002503395081 1 1.063262581825256 1 1.1051025390625 C 1 1.146942496299744 1.070379257202148 1.210202574729919 1.176469802856445 1.210202574729919 L 18.82353019714355 1.210202574729919 C 18.92962074279785 1.210202574729919 19 1.146942496299744 19 1.1051025390625 C 19 1.063262581825256 18.92962074279785 1.000002503395081 18.82353019714355 1.000002503395081 L 1.176469802856445 1.000002503395081 M 1.176469802856445 2.622604370117188e-06 L 18.82353019714355 2.622604370117188e-06 C 19.47327041625977 2.622604370117188e-06 20 0.4947725534439087 20 1.1051025390625 C 20 1.715432524681091 19.47327041625977 2.21020245552063 18.82353019714355 2.21020245552063 L 1.176469802856445 2.21020245552063 C 0.5267200469970703 2.21020245552063 0 1.715432524681091 0 1.1051025390625 C 0 0.4947725534439087 0.5267200469970703 2.622604370117188e-06 1.176469802856445 2.622604370117188e-06 Z" stroke="none" fill="#707070"/></g><g transform="translate(1842 227.685)" fill="#707070"><path d="M 18.82353019714355 1.710202574729919 L 1.176470041275024 1.710202574729919 C 0.8034600019454956 1.710202574729919 0.5 1.43875253200531 0.5 1.1051025390625 C 0.5 0.7714525461196899 0.8034600019454956 0.5000025629997253 1.176470041275024 0.5000025629997253 L 18.82353019714355 0.5000025629997253 C 19.19654083251953 0.5000025629997253 19.5 0.7714525461196899 19.5 1.1051025390625 C 19.5 1.43875253200531 19.19654083251953 1.710202574729919 18.82353019714355 1.710202574729919 Z" stroke="none"/><path d="M 1.176469802856445 1.000002503395081 C 1.070379257202148 1.000002503395081 1 1.063262581825256 1 1.1051025390625 C 1 1.146942496299744 1.070379257202148 1.210202574729919 1.176469802856445 1.210202574729919 L 18.82353019714355 1.210202574729919 C 18.92962074279785 1.210202574729919 19 1.146942496299744 19 1.1051025390625 C 19 1.063262581825256 18.92962074279785 1.000002503395081 18.82353019714355 1.000002503395081 L 1.176469802856445 1.000002503395081 M 1.176469802856445 2.622604370117188e-06 L 18.82353019714355 2.622604370117188e-06 C 19.47327041625977 2.622604370117188e-06 20 0.4947725534439087 20 1.1051025390625 C 20 1.715432524681091 19.47327041625977 2.21020245552063 18.82353019714355 2.21020245552063 L 1.176469802856445 2.21020245552063 C 0.5267200469970703 2.21020245552063 0 1.715432524681091 0 1.1051025390625 C 0 0.4947725534439087 0.5267200469970703 2.622604370117188e-06 1.176469802856445 2.622604370117188e-06 Z" stroke="none" fill="#707070"/></g><g transform="translate(1842 214)" fill="#fff"><path d="M 2.210205078125 3.670415163040161 C 1.405045032501221 3.670415163040161 0.7500050663948059 3.015365123748779 0.7500050663948059 2.210205078125 C 0.7500050663948059 1.405045032501221 1.405045032501221 0.7500050663948059 2.210205078125 0.7500050663948059 C 3.015365123748779 0.7500050663948059 3.670415163040161 1.405045032501221 3.670415163040161 2.210205078125 C 3.670415163040161 3.015365123748779 3.015365123748779 3.670415163040161 2.210205078125 3.670415163040161 Z" stroke="none"/><path d="M 2.210205078125 1.499994993209839 C 1.818595170974731 1.499994993209839 1.499994993209839 1.818595170974731 1.499994993209839 2.210205078125 C 1.499994993209839 2.601815223693848 1.818595170974731 2.92040491104126 2.210205078125 2.92040491104126 C 2.601815223693848 2.92040491104126 2.92040491104126 2.601815223693848 2.92040491104126 2.210205078125 C 2.92040491104126 1.818595170974731 2.601815223693848 1.499994993209839 2.210205078125 1.499994993209839 M 2.210205078125 -4.76837158203125e-06 C 3.430865049362183 -4.76837158203125e-06 4.42040491104126 0.9895451068878174 4.42040491104126 2.210205078125 C 4.42040491104126 3.430865049362183 3.430865049362183 4.42040491104126 2.210205078125 4.42040491104126 C 0.9895451068878174 4.42040491104126 -4.76837158203125e-06 3.430865049362183 -4.76837158203125e-06 2.210205078125 C -4.76837158203125e-06 0.9895451068878174 0.9895451068878174 -4.76837158203125e-06 2.210205078125 -4.76837158203125e-06 Z" stroke="none" fill="#707070"/></g><g transform="translate(1850.389 220.29)" fill="#fff"><path d="M 2.210205078125 3.670415163040161 C 1.405045032501221 3.670415163040161 0.7500050663948059 3.015365123748779 0.7500050663948059 2.210205078125 C 0.7500050663948059 1.405045032501221 1.405045032501221 0.7500050663948059 2.210205078125 0.7500050663948059 C 3.015365123748779 0.7500050663948059 3.670415163040161 1.405045032501221 3.670415163040161 2.210205078125 C 3.670415163040161 3.015365123748779 3.015365123748779 3.670415163040161 2.210205078125 3.670415163040161 Z" stroke="none"/><path d="M 2.210205078125 1.499994993209839 C 1.818595170974731 1.499994993209839 1.499994993209839 1.818595170974731 1.499994993209839 2.210205078125 C 1.499994993209839 2.601815223693848 1.818595170974731 2.92040491104126 2.210205078125 2.92040491104126 C 2.601815223693848 2.92040491104126 2.92040491104126 2.601815223693848 2.92040491104126 2.210205078125 C 2.92040491104126 1.818595170974731 2.601815223693848 1.499994993209839 2.210205078125 1.499994993209839 M 2.210205078125 -4.76837158203125e-06 C 3.430865049362183 -4.76837158203125e-06 4.42040491104126 0.9895451068878174 4.42040491104126 2.210205078125 C 4.42040491104126 3.430865049362183 3.430865049362183 4.42040491104126 2.210205078125 4.42040491104126 C 0.9895451068878174 4.42040491104126 -4.76837158203125e-06 3.430865049362183 -4.76837158203125e-06 2.210205078125 C -4.76837158203125e-06 0.9895451068878174 0.9895451068878174 -4.76837158203125e-06 2.210205078125 -4.76837158203125e-06 Z" stroke="none" fill="#707070"/></g><g transform="translate(1857.58 226.58)" fill="#fff"><path d="M 2.210205078125 3.670415163040161 C 1.405045032501221 3.670415163040161 0.7500050663948059 3.015365123748779 0.7500050663948059 2.210205078125 C 0.7500050663948059 1.405045032501221 1.405045032501221 0.7500050663948059 2.210205078125 0.7500050663948059 C 3.015365123748779 0.7500050663948059 3.670415163040161 1.405045032501221 3.670415163040161 2.210205078125 C 3.670415163040161 3.015365123748779 3.015365123748779 3.670415163040161 2.210205078125 3.670415163040161 Z" stroke="none"/><path d="M 2.210205078125 1.499994993209839 C 1.818595170974731 1.499994993209839 1.499994993209839 1.818595170974731 1.499994993209839 2.210205078125 C 1.499994993209839 2.601815223693848 1.818595170974731 2.92040491104126 2.210205078125 2.92040491104126 C 2.601815223693848 2.92040491104126 2.92040491104126 2.601815223693848 2.92040491104126 2.210205078125 C 2.92040491104126 1.818595170974731 2.601815223693848 1.499994993209839 2.210205078125 1.499994993209839 M 2.210205078125 -4.76837158203125e-06 C 3.430865049362183 -4.76837158203125e-06 4.42040491104126 0.9895451068878174 4.42040491104126 2.210205078125 C 4.42040491104126 3.430865049362183 3.430865049362183 4.42040491104126 2.210205078125 4.42040491104126 C 0.9895451068878174 4.42040491104126 -4.76837158203125e-06 3.430865049362183 -4.76837158203125e-06 2.210205078125 C -4.76837158203125e-06 0.9895451068878174 0.9895451068878174 -4.76837158203125e-06 2.210205078125 -4.76837158203125e-06 Z" stroke="none" fill="#707070"/></g></g></svg>