<svg xmlns="http://www.w3.org/2000/svg" width="22" height="22" viewBox="0 0 22 22">
  <g id="그룹_4243" data-name="그룹 4243" transform="translate(-1849 -65)">
    <g id="그룹_4222" data-name="그룹 4222" transform="translate(0.503 3.502)">
      <path id="expand-alt" d="M4.522,39.724,2.116,42.131l.855.806A.623.623,0,0,1,2.53,44H-.378A.622.622,0,0,1-1,43.377V40.469a.622.622,0,0,1,1.062-.441l.807.856,2.406-2.406a.415.415,0,0,1,.587,0l.659.659A.415.415,0,0,1,4.522,39.724Zm1.956-4.448,2.406-2.406-.855-.806A.623.623,0,0,1,8.47,31h2.908a.622.622,0,0,1,.622.623v2.908a.622.622,0,0,1-1.062.441l-.807-.856L7.724,36.522a.415.415,0,0,1-.587,0l-.659-.659a.415.415,0,0,1,0-.587Z" transform="translate(1854 35)" fill="#636461"/>
      <path id="expand-alt-2" data-name="expand-alt" d="M6.478,39.724l2.406,2.406-.855.806A.623.623,0,0,0,8.47,44h2.908A.622.622,0,0,0,12,43.377V40.469a.622.622,0,0,0-1.062-.441l-.807.856L7.724,38.478a.415.415,0,0,0-.587,0l-.659.659A.415.415,0,0,0,6.478,39.724ZM4.522,35.276,2.116,32.869l.855-.806A.623.623,0,0,0,2.53,31H-.378A.622.622,0,0,0-1,31.623v2.908a.622.622,0,0,0,1.062.441l.807-.856,2.406,2.406a.415.415,0,0,0,.587,0l.659-.659a.415.415,0,0,0,0-.587Z" transform="translate(1854 35)" fill="#636461"/>
    </g>
    <path id="expand" d="M-2,36.235V31.011A.987.987,0,0,1-1.035,30H3.953a.5.5,0,0,1,.483.506l-.483,1.18a.5.5,0,0,1-.483.506H.092v3.539a.5.5,0,0,1-.483.506l-1.126.506A.5.5,0,0,1-2,36.235Zm15.564-5.729.483,1.18a.5.5,0,0,0,.483.506h3.379v3.539a.5.5,0,0,0,.483.506l1.126.506A.5.5,0,0,0,20,36.235V31.011A.987.987,0,0,0,19.035,30H14.047A.5.5,0,0,0,13.564,30.506Zm5.953,14.754-1.126.506a.5.5,0,0,0-.483.506v3.539H14.53a.5.5,0,0,0-.483.506l-.483,1.18a.5.5,0,0,0,.483.506h4.988A.987.987,0,0,0,20,50.989V45.765A.5.5,0,0,0,19.517,45.259ZM4.436,51.494l-.483-1.18a.5.5,0,0,0-.483-.506H.092V46.271a.5.5,0,0,0-.483-.506l-1.126-.506A.5.5,0,0,0-2,45.765v5.224A.987.987,0,0,0-1.035,52H3.953A.5.5,0,0,0,4.436,51.494Z" transform="translate(1851 35)" fill="#b1b1b0"/>
  </g>
</svg>
