<svg xmlns="http://www.w3.org/2000/svg" width="24.807" height="23.203" viewBox="0 0 24.807 23.203"><path d="M17.339,3.867l3.885,4.088a.46.46,0,0,1,0,.626l-9.406,9.9-4,.467a.86.86,0,0,1-.926-.975l.444-4.206,9.406-9.9a.406.406,0,0,1,.594,0Zm6.977-1.038L22.215.617a1.626,1.626,0,0,0-2.377,0l-1.525,1.6a.46.46,0,0,0,0,.626L22.2,6.935a.406.406,0,0,0,.594,0l1.525-1.6a1.839,1.839,0,0,0,0-2.5ZM16.538,15.788V20.4H2.756V5.9h9.9a.516.516,0,0,0,.366-.159l1.723-1.813A.548.548,0,0,0,14.376,3H2.067A2.124,2.124,0,0,0,0,5.172V21.127A2.124,2.124,0,0,0,2.067,23.3h15.16a2.124,2.124,0,0,0,2.067-2.176V13.975a.515.515,0,0,0-.883-.385L16.689,15.4A.573.573,0,0,0,16.538,15.788Z" transform="translate(0 -0.1)" fill="#b1b1b0"/></svg>