<svg xmlns="http://www.w3.org/2000/svg" width="19" height="25" viewBox="0 0 19 25"><path d="M16.625,3.125H12.667a3.167,3.167,0,0,0-6.333,0H2.375A2.36,2.36,0,0,0,0,5.469V22.656A2.36,2.36,0,0,0,2.375,25h14.25A2.36,2.36,0,0,0,19,22.656V5.469A2.36,2.36,0,0,0,16.625,3.125ZM4.75,20.7a1.172,1.172,0,1,1,1.188-1.172A1.177,1.177,0,0,1,4.75,20.7Zm0-4.688a1.172,1.172,0,1,1,1.188-1.172A1.177,1.177,0,0,1,4.75,16.016Zm0-4.687a1.172,1.172,0,1,1,1.188-1.172A1.177,1.177,0,0,1,4.75,11.328ZM9.5,1.953A1.172,1.172,0,1,1,8.313,3.125,1.177,1.177,0,0,1,9.5,1.953Zm6.333,17.969a.394.394,0,0,1-.4.391H8.313a.394.394,0,0,1-.4-.391v-.781a.394.394,0,0,1,.4-.391h7.125a.394.394,0,0,1,.4.391Zm0-4.688a.394.394,0,0,1-.4.391H8.313a.394.394,0,0,1-.4-.391v-.781a.394.394,0,0,1,.4-.391h7.125a.394.394,0,0,1,.4.391Zm0-4.687a.394.394,0,0,1-.4.391H8.313a.394.394,0,0,1-.4-.391V9.766a.394.394,0,0,1,.4-.391h7.125a.394.394,0,0,1,.4.391Z" fill="#b1b1b0"/></svg>