<svg xmlns="http://www.w3.org/2000/svg" width="12" height="15" viewBox="0 0 12 15"><path d="M10.5,1.875H8A1.942,1.942,0,0,0,6,0,1.942,1.942,0,0,0,4,1.875H1.5A1.456,1.456,0,0,0,0,3.281V13.594A1.456,1.456,0,0,0,1.5,15h9A1.456,1.456,0,0,0,12,13.594V3.281A1.456,1.456,0,0,0,10.5,1.875ZM3,12.422a.7.7,0,1,1,0-1.406.7.7,0,1,1,0,1.406ZM3,9.609A.7.7,0,1,1,3,8.2.7.7,0,1,1,3,9.609ZM3,6.8A.7.7,0,1,1,3,5.391.7.7,0,1,1,3,6.8ZM6,1.172a.726.726,0,0,1,.75.7.752.752,0,0,1-1.5,0A.726.726,0,0,1,6,1.172Zm4,10.781a.243.243,0,0,1-.25.234H5.25A.243.243,0,0,1,5,11.953v-.469a.243.243,0,0,1,.25-.234h4.5a.243.243,0,0,1,.25.234Zm0-2.813a.243.243,0,0,1-.25.234H5.25A.243.243,0,0,1,5,9.141V8.672a.243.243,0,0,1,.25-.234h4.5a.243.243,0,0,1,.25.234Zm0-2.813a.243.243,0,0,1-.25.234H5.25A.243.243,0,0,1,5,6.328V5.859a.243.243,0,0,1,.25-.234h4.5a.243.243,0,0,1,.25.234Z" fill="#636461"/></svg>