<svg xmlns="http://www.w3.org/2000/svg" width="33" height="33" viewBox="0 0 33 33"><g transform="translate(-1339 -1081)"><rect width="33" height="33" transform="translate(1339 1081)" fill="none"/><path d="M24.943,13.456A8.618,8.618,0,0,0,17.189,17.7a.8.8,0,0,0,.181,1.082l2.309,1.75a.8.8,0,0,0,1.109-.141c1.189-1.507,2-2.382,3.812-2.382,1.359,0,3.04.875,3.04,2.193,0,1-.823,1.508-2.165,2.26-1.565.877-3.636,1.969-3.636,4.7v.266a.8.8,0,0,0,.8.8h3.726a.8.8,0,0,0,.8-.8v-.089c0-1.894,5.535-1.972,5.535-7.1C32.7,16.383,28.693,13.456,24.943,13.456Zm-.443,16.5a3.06,3.06,0,1,0,3.06,3.06A3.064,3.064,0,0,0,24.5,29.956Z" transform="translate(1331 1073)" fill="#fff"/></g></svg>