<svg xmlns="http://www.w3.org/2000/svg" width="50" height="64" viewBox="0 0 50 64"><g transform="translate(-1323 -1172)"><g transform="translate(925 688)"><path d="M692.1,130.676h27.177a3.462,3.462,0,0,1,3.422,3.473v50.74a3.462,3.462,0,0,1-3.422,3.473H682.436a3.462,3.462,0,0,1-3.422-3.473v-41a6.737,6.737,0,0,1,2.013-4.9l6.241-6.266a6.54,6.54,0,0,1,4.832-2.043Z" transform="translate(-276.014 358.48)" fill="#dedede" fill-rule="evenodd"/><path d="M679.014,143.676a6.6,6.6,0,0,1,2-4.825l6.2-6.165a6.528,6.528,0,0,1,4.8-2.01v10.186a2.839,2.839,0,0,1-2.867,2.814Z" transform="translate(-275.856 358.48)" fill="#dedede" fill-rule="evenodd"/><path d="M716.738,126.969h-27.2a7.672,7.672,0,0,0-5.638,2.377l-6.25,6.272a7.891,7.891,0,0,0-2.349,5.722v41a4.6,4.6,0,0,0,4.567,4.629h36.866a4.6,4.6,0,0,0,4.567-4.629V131.6A4.6,4.6,0,0,0,716.738,126.969Zm2.284,55.371a2.3,2.3,0,0,1-2.284,2.316H679.872a2.3,2.3,0,0,1-2.284-2.316v-41a5.554,5.554,0,0,1,1.676-4.08l6.25-6.272a5.442,5.442,0,0,1,2.886-1.6v9.089a1.728,1.728,0,0,1-1.746,1.706h-5.909a1.157,1.157,0,0,0,0,2.313h5.909a4.029,4.029,0,0,0,4.03-4.019v-9.2h26.054a2.3,2.3,0,0,1,2.284,2.318Z" transform="translate(-273.305 361.031)" fill="#636461"/><path d="M718.34,214.437l1.584-1.584a1.123,1.123,0,0,0-1.588-1.588l-1.583,1.584-1.584-1.584a1.123,1.123,0,0,0-1.588,1.588l1.583,1.584-1.583,1.584a1.123,1.123,0,0,0,1.588,1.588l1.584-1.584,1.583,1.584a1.123,1.123,0,1,0,1.588-1.588Z" transform="translate(-299.252 303.063)" fill="#636461"/><path d="M768.715,214.439l1.586-1.579a1.132,1.132,0,0,0,.011-1.589,1.11,1.11,0,0,0-1.573-.009l-1.607,1.6-1.607-1.6a1.11,1.11,0,0,0-1.573.009,1.132,1.132,0,0,0,.011,1.589l1.586,1.579-1.586,1.58a1.132,1.132,0,0,0-.011,1.589,1.108,1.108,0,0,0,1.573.009l1.607-1.6,1.607,1.6a1.108,1.108,0,0,0,1.573-.009,1.132,1.132,0,0,0-.011-1.589Z" transform="translate(-333.632 303.061)" fill="#636461"/><path d="M735.306,263.294a1.132,1.132,0,0,1-.823-.358,13.222,13.222,0,0,0-9.513-4.19,13.051,13.051,0,0,0-9.514,4.19,1.125,1.125,0,0,1-1.646,0,1.276,1.276,0,0,1,0-1.736,15.3,15.3,0,0,1,11.16-4.906,15.51,15.51,0,0,1,11.159,4.906,1.276,1.276,0,0,1,0,1.736A1.132,1.132,0,0,1,735.306,263.294Z" transform="translate(-299.47 271.705)" fill="#636461"/></g><g transform="translate(921 684)"><path d="M692.1,130.676h27.177a3.462,3.462,0,0,1,3.422,3.473v50.74a3.462,3.462,0,0,1-3.422,3.473H682.436a3.462,3.462,0,0,1-3.422-3.473v-41a6.737,6.737,0,0,1,2.013-4.9l6.241-6.266a6.54,6.54,0,0,1,4.832-2.043Z" transform="translate(-276.014 358.48)" fill="#fff" fill-rule="evenodd"/><path d="M679.014,143.676a6.6,6.6,0,0,1,2-4.825l6.2-6.165a6.528,6.528,0,0,1,4.8-2.01v10.186a2.839,2.839,0,0,1-2.867,2.814Z" transform="translate(-275.856 358.48)" fill="#dedede" fill-rule="evenodd"/><path d="M716.738,126.969h-27.2a7.672,7.672,0,0,0-5.638,2.377l-6.25,6.272a7.891,7.891,0,0,0-2.349,5.722v41a4.6,4.6,0,0,0,4.567,4.629h36.866a4.6,4.6,0,0,0,4.567-4.629V131.6A4.6,4.6,0,0,0,716.738,126.969Zm2.284,55.371a2.3,2.3,0,0,1-2.284,2.316H679.872a2.3,2.3,0,0,1-2.284-2.316v-41a5.554,5.554,0,0,1,1.676-4.08l6.25-6.272a5.442,5.442,0,0,1,2.886-1.6v9.089a1.728,1.728,0,0,1-1.746,1.706h-5.909a1.157,1.157,0,0,0,0,2.313h5.909a4.029,4.029,0,0,0,4.03-4.019v-9.2h26.054a2.3,2.3,0,0,1,2.284,2.318Z" transform="translate(-273.305 361.031)" fill="#636461"/><path d="M718.34,214.437l1.584-1.584a1.123,1.123,0,0,0-1.588-1.588l-1.583,1.584-1.584-1.584a1.123,1.123,0,0,0-1.588,1.588l1.583,1.584-1.583,1.584a1.123,1.123,0,0,0,1.588,1.588l1.584-1.584,1.583,1.584a1.123,1.123,0,1,0,1.588-1.588Z" transform="translate(-299.252 303.063)" fill="#636461"/><path d="M768.715,214.439l1.586-1.579a1.132,1.132,0,0,0,.011-1.589,1.11,1.11,0,0,0-1.573-.009l-1.607,1.6-1.607-1.6a1.11,1.11,0,0,0-1.573.009,1.132,1.132,0,0,0,.011,1.589l1.586,1.579-1.586,1.58a1.132,1.132,0,0,0-.011,1.589,1.108,1.108,0,0,0,1.573.009l1.607-1.6,1.607,1.6a1.108,1.108,0,0,0,1.573-.009,1.132,1.132,0,0,0-.011-1.589Z" transform="translate(-333.632 303.061)" fill="#636461"/><path d="M735.306,263.294a1.132,1.132,0,0,1-.823-.358,13.222,13.222,0,0,0-9.513-4.19,13.051,13.051,0,0,0-9.514,4.19,1.125,1.125,0,0,1-1.646,0,1.276,1.276,0,0,1,0-1.736,15.3,15.3,0,0,1,11.16-4.906,15.51,15.51,0,0,1,11.159,4.906,1.276,1.276,0,0,1,0,1.736A1.132,1.132,0,0,1,735.306,263.294Z" transform="translate(-299.47 271.705)" fill="#636461"/></g></g></svg>