<svg xmlns="http://www.w3.org/2000/svg" width="16" height="16" viewBox="0 0 16 16"><g transform="translate(-46.71 171)"><path d="M155.413,406.175a5.045,5.045,0,0,1,.171,1.243,5.1,5.1,0,1,1-5.1-5.112,5,5,0,0,1,1.31.193l1.618-1.623a7.089,7.089,0,0,0-2.928-.635,7.184,7.184,0,1,0,6.553,4.3Z" transform="translate(-96.623 -569.596)" fill="#FF6F00"/><path d="M158.132,398.3a2.221,2.221,0,0,0-2.226,2.219,2.192,2.192,0,0,0,.114.67l-3.467,3.459a2.829,2.829,0,1,0,1.453,1.44l3.465-3.458a2.216,2.216,0,1,0,.66-4.33" transform="translate(-97.646 -569.305)" fill="#FF6F00"/></g></svg>
