<svg xmlns="http://www.w3.org/2000/svg" width="44" height="42" viewBox="0 0 44 42"><g transform="translate(-202 -822)"><rect width="44" height="42" transform="translate(202 822)" fill="none"/><path d="M757.052,22.4h-4.712a.9.9,0,0,0-.634,1.531l1.229,1.157L750.1,27.916l1.791,1.791,2.831-2.831,1.16,1.229a.894.894,0,0,0,1.527-.633V22.759A.361.361,0,0,0,757.052,22.4Z" transform="translate(-524.414 814.121)" fill="#636461"/><path d="M728.065,49.961h0a.6.6,0,0,0,0,.847l.944.944h0a.6.6,0,0,0,.844,0l5.343-5.343-1.791-1.791Z" transform="translate(-510.889 800.59)" fill="#636461"/><path d="M743.608,32.444a.934.934,0,0,0-1.321,0l-1.206,1.282L737.752,30.4l-1.868-1.868-5.949-5.949h0a.627.627,0,0,0-.883,0l-.984.984h0a.623.623,0,0,0,0,.88l5.95,5.95,1.868,1.868,3.329,3.329-1.282,1.209a.933.933,0,0,0,.66,1.592h4.915a.377.377,0,0,0,.377-.377V33.109A.934.934,0,0,0,743.608,32.444Z" transform="translate(-510.884 814.117)" fill="#636461"/></g></svg>