<svg xmlns="http://www.w3.org/2000/svg" width="30" height="30" viewBox="0 0 30 30"><g transform="translate(-311 -129)"><g transform="translate(102 -1)"><circle cx="15" cy="15" r="15" transform="translate(209 130)" fill="none"/><g transform="translate(216 137)"><path d="M13.6,16H2.4v-.8l3.2-1.6h-4A1.6,1.6,0,0,1,0,12V1.6A1.6,1.6,0,0,1,1.6,0H14.4A1.6,1.6,0,0,1,16,1.6V12a1.6,1.6,0,0,1-1.6,1.6h-4l3.2,1.6V16ZM1.6,1.6v8.8H14.4V1.6Z" fill="#fff" stroke="rgba(0,0,0,0)" stroke-miterlimit="10" stroke-width="1"/></g></g></g></svg>