<svg xmlns="http://www.w3.org/2000/svg" width="30" height="30" viewBox="0 0 30 30"><g transform="translate(-209 -654)"><g transform="translate(209 654)"><circle cx="15" cy="15" r="15" fill="none"/></g><g transform="translate(214 659)"><path d="M14.977,6.71h-.91A6.474,6.474,0,0,0,8.627,1.269V.359A.359.359,0,0,0,8.267,0h-1.2A.359.359,0,0,0,6.71.359v.91A6.474,6.474,0,0,0,1.269,6.71H.359A.359.359,0,0,0,0,7.069v1.2a.359.359,0,0,0,.359.359h.91A6.474,6.474,0,0,0,6.71,14.068v.91a.359.359,0,0,0,.359.359h1.2a.359.359,0,0,0,.359-.359v-.91a6.474,6.474,0,0,0,5.441-5.441h.91a.359.359,0,0,0,.359-.359v-1.2A.359.359,0,0,0,14.977,6.71ZM8.627,12.12V10.9a.359.359,0,0,0-.359-.359h-1.2a.359.359,0,0,0-.359.359V12.12A4.558,4.558,0,0,1,3.216,8.627H4.433a.359.359,0,0,0,.359-.359v-1.2a.359.359,0,0,0-.359-.359H3.216A4.558,4.558,0,0,1,6.71,3.216V4.433a.359.359,0,0,0,.359.359h1.2a.359.359,0,0,0,.359-.359V3.216A4.558,4.558,0,0,1,12.12,6.71H10.9a.359.359,0,0,0-.359.359v1.2a.359.359,0,0,0,.359.359H12.12A4.558,4.558,0,0,1,8.627,12.12Zm0-4.452a.959.959,0,1,1-.959-.959A.959.959,0,0,1,8.627,7.668Z" transform="translate(2.432 2.43)" fill="#fff"/><g fill="none"><path d="M10,0A10,10,0,1,1,0,10,10,10,0,0,1,10,0Z" stroke="none"/><path d="M 10 0.5 C 4.761679649353027 0.5 0.5 4.761679649353027 0.5 10 C 0.5 15.23831939697266 4.761679649353027 19.5 10 19.5 C 15.23831939697266 19.5 19.5 15.23831939697266 19.5 10 C 19.5 4.761679649353027 15.23831939697266 0.5 10 0.5 M 10 0 C 15.52285003662109 0 20 4.477149963378906 20 10 C 20 15.52285003662109 15.52285003662109 20 10 20 C 4.477149963378906 20 0 15.52285003662109 0 10 C 0 4.477149963378906 4.477149963378906 0 10 0 Z" stroke="none" fill="#fff"/></g></g></g></svg>