<svg xmlns="http://www.w3.org/2000/svg" width="44" height="42" viewBox="0 0 44 42"><g transform="translate(-202 -214)"><path d="M0,0H44V42H0Z" transform="translate(202 214)" fill="none"/><g transform="translate(222.094 235)"><path d="M522.45,533.984" transform="translate(-522.45 -533.984)" fill="none" stroke="#93c01f" stroke-miterlimit="10" stroke-width="2"/></g><g transform="translate(228.652 235)"><path d="M529.055,533.984" transform="translate(-529.055 -533.984)" fill="none" stroke="#93c01f" stroke-miterlimit="10" stroke-width="2"/></g><g transform="translate(218.007 231)"><path d="M519.11,537.778a.768.768,0,0,1-.53-.208.689.689,0,0,1,0-1.009l6.911-6.573a.778.778,0,0,1,1.061,0,.689.689,0,0,1,0,1.009l-6.912,6.573A.766.766,0,0,1,519.11,537.778Z" transform="translate(-518.36 -529.778)" fill="#636461"/></g><g transform="translate(213 234)"><path d="M518.3,534.885h-7.632c-.754,0-1.368-.9-1.368-2h1.232c0,.11.061.2.136.2H518.3Z" transform="translate(-509.301 -532.885)" fill="#636461"/></g><g transform="translate(226.127 235)"><path d="M526.512,533.984" transform="translate(-526.512 -533.984)" fill="none" stroke="#93c01f" stroke-miterlimit="10" stroke-width="2"/></g><g transform="translate(219.57 235)"><path d="M519.907,533.984" transform="translate(-519.907 -533.984)" fill="none" stroke="#93c01f" stroke-miterlimit="10" stroke-width="2"/></g><g transform="translate(221.805 231)"><path d="M522.941,537.778a.768.768,0,0,1-.53-.208.689.689,0,0,1,0-1.009l6.911-6.573a.778.778,0,0,1,1.061,0,.689.689,0,0,1,0,1.009l-6.911,6.573A.77.77,0,0,1,522.941,537.778Z" transform="translate(-522.191 -529.778)" fill="#636461"/></g><g transform="translate(226 234)"><path d="M535.513,535.084H534.28c0-.11-.061-.2-.135-.2h-7.632v-1.8h7.632C534.9,533.084,535.513,533.981,535.513,535.084Z" transform="translate(-526.513 -533.084)" fill="#636461"/></g></g></svg>