<svg xmlns="http://www.w3.org/2000/svg" width="19" height="21" viewBox="0 0 19 21"><g transform="translate(-216 -791)"><g transform="translate(223 793)"><rect width="6.633" height="17.001" transform="translate(5.367)" fill="#dedede"/><rect width="4.367" height="17.001" fill="#dedede"/></g><path d="M748.012,77.785v21l6.621-1.448v-18.1Z" transform="translate(-519.633 713.215)" fill="#636461"/><g transform="translate(216 795.037)"><path d="M745.561,94.04l-1.712-1.6V87.653a1.792,1.792,0,0,0-.031-.319h1.4v3.191a.994.994,0,0,0,1.027.957h.688V90.214h0V87.023a1.325,1.325,0,0,0-1.369-1.276h-3.769V83.514a1.716,1.716,0,0,0-3.423,0V84.79a1.657,1.657,0,0,0,1.712,1.6h.342v1.915h-4.45v1.6h4.45v1.276l-4.108,1.6v3.51l-.685.957h2.4v-3.51l2.739-.957h.913l2.853,2.872h2.254l1.369.957V94.057Z" transform="translate(-735.633 -81.922)" fill="#636461"/></g></g></svg>