<svg xmlns="http://www.w3.org/2000/svg" width="44" height="42" viewBox="0 0 44 42"><g transform="translate(-202 -738)"><rect width="44" height="42" transform="translate(202 738)" fill="none"/><path d="M15.681,15.928,10.611,13.5l5.071-2.428a.558.558,0,0,0,.255-.754l-.511-1.007a.576.576,0,0,0-.767-.252L8,12.249,1.336,9.059a.576.576,0,0,0-.767.252L.058,10.318a.558.558,0,0,0,.255.754L5.384,13.5.314,15.928a.558.558,0,0,0-.255.755L.57,17.689a.576.576,0,0,0,.767.251L8,14.751l6.662,3.189a.576.576,0,0,0,.767-.251l.511-1.007A.559.559,0,0,0,15.681,15.928ZM5.355,8.342l-.2.909a.686.686,0,0,0,.587.874h4.5a.686.686,0,0,0,.587-.874l-.2-.909A4.408,4.408,0,0,0,13.14,4.5C13.14,2.015,10.838,0,8,0S2.855,2.015,2.855,4.5A4.408,4.408,0,0,0,5.355,8.342ZM10,3.937A1.125,1.125,0,1,1,8.855,5.062,1.135,1.135,0,0,1,10,3.937Zm-4,0A1.125,1.125,0,1,1,4.855,5.062,1.135,1.135,0,0,1,6,3.937Z" transform="translate(217.57 749.961)" fill="#636461"/></g></svg>