<svg xmlns="http://www.w3.org/2000/svg" width="30" height="30" viewBox="0 0 30 30"><g transform="translate(-209 -318)"><path d="M15,0A15,15,0,1,1,0,15,15,15,0,0,1,15,0Z" transform="translate(209 318)" fill="none"/><g transform="translate(215 326)"><rect width="18" height="4" rx="1" fill="#fff"/><circle cx="0.75" cy="0.75" r="0.75" transform="translate(2 1)" fill="#b1b1b0"/><circle cx="0.75" cy="0.75" r="0.75" transform="translate(5 1)" fill="#93c01f"/><g transform="translate(0 5)"><rect width="18" height="4" rx="1" fill="#fff"/><circle cx="0.75" cy="0.75" r="0.75" transform="translate(2 1)" fill="#b1b1b0"/><circle cx="0.75" cy="0.75" r="0.75" transform="translate(5 1)" fill="#93c01f"/></g><g transform="translate(0 10)"><rect width="18" height="4" rx="1" fill="#fff"/><circle cx="0.75" cy="0.75" r="0.75" transform="translate(2 1)" fill="#b1b1b0"/><circle cx="0.75" cy="0.75" r="0.75" transform="translate(5 1)" fill="#93c01f"/></g></g></g></svg>