<svg xmlns="http://www.w3.org/2000/svg" width="44" height="42" viewBox="0 0 44 42"><g transform="translate(-202 -864)"><rect width="44" height="42" transform="translate(202 864)" fill="none"/><g transform="translate(382.62 145.666)"><path d="M-150.271,745.688h0a3.8,3.8,0,0,1-2.131,2.051h0a3.831,3.831,0,0,1-1.385.256,3.778,3.778,0,0,1-3.808-3.748h0a3.78,3.78,0,0,1,3.808-3.751,3.78,3.78,0,0,1,3.807,3.751,3.708,3.708,0,0,1-.293,1.446Zm-3.514-6.539a5.132,5.132,0,0,0-5.171,5.093,5.132,5.132,0,0,0,5.17,5.092h0a5.227,5.227,0,0,0,1.86-.34h0a5.153,5.153,0,0,0,2.921-2.817h0a5.032,5.032,0,0,0,.385-1.936,5.131,5.131,0,0,0-5.169-5.093h0Z" fill="#636461"/><path d="M-152.455,744.066a5.82,5.82,0,0,0-.749-.5,5.262,5.262,0,0,1-.777-.52.65.65,0,0,1-.135-.467.551.551,0,0,1,.066-.3.22.22,0,0,1,.2-.1.209.209,0,0,1,.214.116,1.539,1.539,0,0,1,.05.492v.235h1.441c.009-.119.014-.208.014-.267a1.392,1.392,0,0,0-.332-.985,1.583,1.583,0,0,0-1-.441v-.453h-.663v.453a1.8,1.8,0,0,0-1.1.447,1.329,1.329,0,0,0-.366,1,1.746,1.746,0,0,0,.173.787,1.587,1.587,0,0,0,.41.538,9.983,9.983,0,0,0,.9.6,1.017,1.017,0,0,1,.464.448,2.463,2.463,0,0,1,.068.684.484.484,0,0,1-.072.289.252.252,0,0,1-.217.1.2.2,0,0,1-.216-.139,3.2,3.2,0,0,1-.044-.711v-.348h-1.439v.278a1.7,1.7,0,0,0,.432,1.329,1.738,1.738,0,0,0,1.009.437v.552h.663v-.534a1.714,1.714,0,0,0,1.113-.534,1.774,1.774,0,0,0,.371-1.191,2,2,0,0,0-.138-.791,1.349,1.349,0,0,0-.337-.491Z" fill="#636461"/></g><g transform="translate(382.62 145.666)"><path d="M-156.3,733.906l.416-.516-.527-.407-1.37-1.057-.528-.407-.417.517c-2.642-1.634-5.147-2-6.4-1.483a33.681,33.681,0,0,1,5.108,3.09l-.445.552.555.429,1.312,1.01.557.429.446-.552a32.166,32.166,0,0,1,4.207,4.093l-.006.022C-153.162,738.326-154.045,736.053-156.3,733.906Z" fill="#636461"/><path d="M-156.052,731.811a.451.451,0,0,1,.043.635l-.4.536h0l-1.37-1.057.443-.509a.475.475,0,0,1,.637-.108Z" fill="#b1b1b0"/><path d="M-158.6,735.636l-.068.082-5.976,7.895a1.153,1.153,0,0,1-1.613.052,1.112,1.112,0,0,1-.177-1.434l6.453-7.522.069-.086Z" fill="#b1b1b0"/></g></g></svg>