<svg xmlns="http://www.w3.org/2000/svg" width="44" height="42" viewBox="0 0 44 42"><g transform="translate(-202 -256)"><path d="M0,0H44V42H0Z" transform="translate(202 256)" fill="#fff"/><g transform="translate(215 270)"><path d="M389.547,2314.667q-3.586,0-7.167,0a1.558,1.558,0,0,1-1.781-1.74q0-5.763,0-11.524c0-1.159.59-1.732,1.787-1.732q7.24,0,14.479,0a1.535,1.535,0,0,1,1.732,1.692q0,5.784,0,11.568a1.561,1.561,0,0,1-1.787,1.736Q393.176,2314.668,389.547,2314.667Zm.025-1.923v0h6.405c.563,0,.657-.083.657-.6q0-4.97,0-9.939c0-.538-.09-.627-.632-.627q-6.4-.006-12.81,0c-.534,0-.632.1-.634.629v9.9c0,.573.071.642.655.645Q386.393,2312.746,389.571,2312.744Z" transform="translate(-380.596 -2299.667)" fill="#636461"/></g><g transform="translate(217.631 273.277)"><path d="M388.01,2310.11a.482.482,0,0,1-.439-.3l-1.873-4.427-.851,1.945a.48.48,0,0,1-.437.3H382.4a.508.508,0,0,1,0-1.015h1.7l1.166-2.668a.479.479,0,0,1,.436-.294h0a.477.477,0,0,1,.436.3l1.828,4.319,2.263-6.385a.483.483,0,0,1,.441-.33h.008a.479.479,0,0,1,.445.315l1.413,3.625h1.637a.508.508,0,0,1,0,1.015h-1.96a.479.479,0,0,1-.443-.314l-1.069-2.744-2.244,6.333a.491.491,0,0,1-.436.33Z" transform="translate(-381.918 -2301.55)" fill="#636461"/></g></g></svg>