<svg xmlns="http://www.w3.org/2000/svg" width="44" height="42" viewBox="0 0 44 42"><g transform="translate(-202 -696)"><rect width="44" height="42" transform="translate(202 696)" fill="none"/><rect width="16" height="9" transform="translate(218 716)" fill="#dedede"/><g transform="translate(-1344 -11)"><g transform="translate(960 643.09)"><g transform="translate(600 75.911)"><path d="M602.206,105.255a.769.769,0,1,1-.738.768.753.753,0,0,1,.738-.768Zm2.336,0a.769.769,0,1,1-.738.768.753.753,0,0,1,.738-.768Zm2.336,0a.769.769,0,1,1-.737.768.753.753,0,0,1,.737-.768ZM619,104.624h-5.361v2.793H617.9v9.647H601.1v-9.647h9.653v-2.793H600v13.749h19V104.624Z" transform="translate(-600 -99.373)" fill="#525151"/><path d="M633.041,91.344a2.351,2.351,0,0,1-2.269-2.42l1.032.012-2.228-2.5v2.492a3.827,3.827,0,0,0,.857,2.433,3.37,3.37,0,0,0,2.609,1.263,3.586,3.586,0,0,0,3.465-3.7V78.13a1.214,1.214,0,0,0,.54-1.023,1.123,1.123,0,1,0-2.242,0,1.217,1.217,0,0,0,.506,1V88.924a2.351,2.351,0,0,1-2.269,2.42Z" transform="translate(-623.811 -75.911)" fill="#525151"/></g></g></g></g></svg>