<svg xmlns="http://www.w3.org/2000/svg" width="44" height="42" viewBox="0 0 44 42"><g transform="translate(-202 -360)"><g transform="translate(0 188)"><path d="M0,0H44V42H0Z" transform="translate(202 172)" fill="transparent"/></g><g transform="translate(138.85 295.85)"><path d="M94.72,92.293,90.7,88.277a1.469,1.469,0,0,0-1.419-.38l-.936-.935a7.353,7.353,0,1,0-1.386,1.387l.935.935a1.469,1.469,0,0,0,.38,1.42l4.017,4.017a1.471,1.471,0,0,0,2.08,0l.347-.347A1.47,1.47,0,0,0,94.72,92.293Zm-7.884-5.457a6.128,6.128,0,1,1,0-8.666A6.135,6.135,0,0,1,86.836,86.836Z" fill="#636461"/></g></g></svg>
