<svg xmlns="http://www.w3.org/2000/svg" width="221.71" height="51" viewBox="0 0 221.71 51"><g transform="translate(-143.333 -398.305)"><path d="M212.8,424.821a6.219,6.219,0,1,1,6.235-6.219,6.232,6.232,0,0,1-6.235,6.219m13.1-6.219a13.1,13.1,0,1,0-13.1,13.075,12.959,12.959,0,0,0,6.222-1.633v2.671h6.872V419.087c.008-.165.011-.317.011-.485" transform="translate(93.739 11.846)" fill="#fff"/><rect width="6.871" height="36.738" transform="translate(200.808 407.774)" fill="#fff"/><path d="M182.292,405.527a13.569,13.569,0,1,0,13.6,13.57,13.585,13.585,0,0,0-13.6-13.57m0,6.856a6.713,6.713,0,1,1-6.726,6.715,6.728,6.728,0,0,1,6.726-6.715" transform="translate(42.174 11.846)" fill="#fff"/><path d="M200.469,401.983H176.93v6.856h8.334v29.881h6.872V408.84h8.333Z" transform="translate(55.889 5.791)" fill="#fff"/><path d="M203.42,429.7a9.8,9.8,0,1,1,9.142-13.229h7.051a16.652,16.652,0,1,0,0,6.858h-7.053A9.782,9.782,0,0,1,203.42,429.7Z" transform="translate(72.117 7.953)" fill="#fff"/><path d="M236.683,418.972a6.57,6.57,0,0,1-1.91,4.865,6.742,6.742,0,0,1-8.784.609l7.454-7.438,1.942-1.939,4.61-4.6.249-.249c-.211-.244-.379-.517-.609-.748a13.447,13.447,0,0,0-2.66-2.015c-.095-.057-.192-.1-.29-.152a13.65,13.65,0,1,0,5.58,6.094Zm-11.444-4.651a6.737,6.737,0,0,1,6.219-1.8l-8.02,8A6.7,6.7,0,0,1,225.239,414.321Z" transform="translate(121.488 11.849)" fill="#fff"/><path d="M210.633,418.206V418.2h0c.068-6.88,6.387-12.674,13.876-12.674v6.856c-3.741,0-7.032,2.771-7.032,5.927h0v14.356h-6.848V418.206Z" transform="translate(112.062 11.846)" fill="#fff"/><path d="M182.462,419.157a15.843,15.843,0,0,1,.553,3.963,16.775,16.775,0,1,1-12.265-15.682l5.241-5.175a22.82,22.82,0,1,0,13.7,20.856,22.488,22.488,0,0,0-1.953-9.165Z" transform="translate(0 3.308)" fill="#fff"/><path d="M178.975,398.3a7.08,7.08,0,0,0-7.094,7.072,6.988,6.988,0,0,0,.363,2.135l-11.051,11.024a9.017,9.017,0,1,0,4.632,4.591l11.046-11.022a7.065,7.065,0,1,0,2.1-13.8" transform="translate(9.005)" fill="#fff"/></g></svg>