<svg xmlns="http://www.w3.org/2000/svg" width="160" height="29" viewBox="0 0 160 29"><g transform="translate(-143.333 -398.305)"><path d="M228.765,419.31l2.27-10.731h2.25l-1.882,8.852h3.766l-.4,1.879Z" transform="translate(43.308 5.269)" fill="#fff"/><path d="M236.456,419.552h-2.212l1.74-8.2H238.2Zm-.117-10.128a1.26,1.26,0,0,1,.35-.964,1.4,1.4,0,0,1,.989-.328,1.278,1.278,0,0,1,.818.228.8.8,0,0,1,.28.653,1.373,1.373,0,0,1-.323.95,1.271,1.271,0,0,1-1,.363C236.711,410.326,236.339,410.025,236.339,409.423Z" transform="translate(46.268 5.027)" fill="#fff"/><path d="M244.549,418.478h-2.212l1.006-4.792a3.952,3.952,0,0,0,.117-.875c0-.6-.265-.9-.795-.9a1.521,1.521,0,0,0-1.226.838,6.846,6.846,0,0,0-.867,2.333l-.721,3.4h-2.216l1.745-8.2h1.691l-.156,1.519h.068a3.075,3.075,0,0,1,2.589-1.673,2.008,2.008,0,0,1,1.569.613,2.522,2.522,0,0,1,.555,1.75,6.374,6.374,0,0,1-.168,1.321Z" transform="translate(48.099 6.101)" fill="#fff"/><path d="M247.536,418.53a3.3,3.3,0,0,1-2.4-.829,3.117,3.117,0,0,1-.853-2.341,6.228,6.228,0,0,1,.608-2.769,4.5,4.5,0,0,1,1.643-1.908,4.282,4.282,0,0,1,2.346-.659,3.118,3.118,0,0,1,2.03.6,2.01,2.01,0,0,1,.729,1.64,2.347,2.347,0,0,1-1.229,2.118,6.8,6.8,0,0,1-3.507.744h-.376l-.015.154v.148a1.435,1.435,0,0,0,.38,1.054,1.46,1.46,0,0,0,1.084.385,4.52,4.52,0,0,0,1.161-.14,7.75,7.75,0,0,0,1.266-.491V417.9A6.348,6.348,0,0,1,247.536,418.53Zm1.206-6.914a1.693,1.693,0,0,0-1.22.588,2.818,2.818,0,0,0-.75,1.431h.33a3.689,3.689,0,0,0,1.779-.354,1.086,1.086,0,0,0,.635-.967Q249.516,411.616,248.742,411.616Z" transform="translate(51.692 6.049)" fill="#fff"/><path d="M207.149,416.5a3.536,3.536,0,1,1,3.546-3.536,3.544,3.544,0,0,1-3.546,3.536m7.452-3.536a7.451,7.451,0,1,0-7.452,7.435,7.369,7.369,0,0,0,3.538-.929v1.519h3.908v-7.749c0-.094.006-.18.006-.276" transform="translate(28.781 3.62)" fill="#fff"/><rect width="3.907" height="20.89" transform="translate(175.941 403.689)" fill="#fff"/><path d="M176.427,405.527a7.716,7.716,0,1,0,7.733,7.716,7.725,7.725,0,0,0-7.733-7.716m0,3.9a3.817,3.817,0,1,1-3.824,3.818,3.826,3.826,0,0,1,3.824-3.818" transform="translate(12.947 3.62)" fill="#fff"/><path d="M190.315,401.983H176.93v3.9h4.739v16.991h3.908V405.882h4.738Z" transform="translate(17.165 1.706)" fill="#fff"/><path d="M196.22,418.291a5.572,5.572,0,1,1,5.2-7.522h4.009a9.469,9.469,0,1,0,0,3.9h-4.011A5.562,5.562,0,0,1,196.22,418.291Z" transform="translate(22.124 2.39)" fill="#fff"/><path d="M227.93,413.173a3.736,3.736,0,0,1-1.086,2.766,3.834,3.834,0,0,1-4.995.347l4.239-4.229,1.1-1.1,2.621-2.615.142-.142c-.12-.139-.216-.294-.347-.425a7.646,7.646,0,0,0-1.513-1.146c-.054-.032-.109-.055-.165-.086A7.762,7.762,0,1,0,231.1,410Zm-6.507-2.645a3.831,3.831,0,0,1,3.536-1.023l-4.561,4.551A3.81,3.81,0,0,1,221.423,410.528Z" transform="translate(37.296 3.622)" fill="#fff"/><path d="M210.633,412.737v0h0c.039-3.912,3.632-7.207,7.891-7.207v3.9c-2.127,0-4,1.576-4,3.37h0v8.163h-3.894v-8.222Z" transform="translate(34.454 3.62)" fill="#fff"/><path d="M165.583,411a9.008,9.008,0,0,1,.314,2.254,9.539,9.539,0,1,1-6.974-8.917l2.98-2.942a12.976,12.976,0,1,0,7.787,11.859,12.787,12.787,0,0,0-1.111-5.211Z" transform="translate(0 1.046)" fill="#fff"/><path d="M165.874,398.3a4.026,4.026,0,0,0-4.034,4.021,3.974,3.974,0,0,0,.206,1.214l-6.284,6.269a5.127,5.127,0,1,0,2.634,2.611l6.281-6.267a4.017,4.017,0,1,0,1.2-7.847" transform="translate(2.847)" fill="#fff"/></g></svg>