<svg xmlns="http://www.w3.org/2000/svg" width="436.336" height="53.68" viewBox="0 0 436.336 53.68"><g transform="translate(-45 -45)"><g transform="translate(-6 5)"><g transform="translate(-478 -91)"><g transform="translate(529 131)"><g transform="translate(60.27 9.833)"><path d="M359.586,301.54h-6.6a.907.907,0,0,1-.887-.984V265.9a.867.867,0,0,1,.887-.936h6.6a.9.9,0,0,1,.935.936v34.656A.946.946,0,0,1,359.586,301.54Z" transform="translate(-352.103 -264.522)" fill="#fff"/><path d="M379.887,303.623c-7.974,0-12.356-4.972-12.356-12.8v-3.446c0-7.827,4.382-12.8,12.356-12.8s12.306,4.972,12.306,12.8v3.446C392.194,298.651,387.862,303.623,379.887,303.623Zm4.382-16.244c0-3.988-1.526-6.006-4.382-6.006s-4.431,2.018-4.431,6.006v3.446c0,3.987,1.575,6.054,4.431,6.054s4.382-2.068,4.382-6.054Z" transform="translate(-354.735 -266.163)" fill="#fff"/><path d="M425.274,271.905H417.3v28.651a.988.988,0,0,1-.985.984h-6.448a.988.988,0,0,1-.985-.984V271.905h-8.024a.945.945,0,0,1-.984-.935V265.9a.946.946,0,0,1,.984-.936h24.416a.99.99,0,0,1,1.034.936v5.07A.989.989,0,0,1,425.274,271.905Z" transform="translate(-360.254 -264.522)" fill="#fff"/><path d="M470.738,301.055a27.915,27.915,0,0,1-7.335.837c-7.482,0-14.571-3.938-14.571-15.654v-6.2c0-11.716,7.089-15.6,14.571-15.6a27.964,27.964,0,0,1,7.335.836c.689.2,1.084.394,1.084,1.084v4.775a.87.87,0,0,1-.936.984h-.148c-1.87-.148-4.577-.395-7.284-.395-3.4,0-6.105,1.773-6.105,8.32v6.2c0,6.547,2.708,8.319,6.105,8.319,2.707,0,5.414-.246,7.284-.393h.148a.869.869,0,0,1,.936.984v4.775C471.822,300.613,471.427,300.858,470.738,301.055Z" transform="translate(-368.607 -264.431)" fill="#fff"/><path d="M501.627,303.18h-5.514a.986.986,0,0,1-.984-.984v-.788a10.858,10.858,0,0,1-6.842,2.214c-4.284,0-8.419-2.067-8.419-8.466v-.444c0-5.759,3.693-8.319,12.111-8.319h2.658v-1.772c0-2.806-1.378-3.4-3.692-3.4-3.151,0-6.647.2-8.172.344h-.245a.8.8,0,0,1-.887-.886V276.7a1.1,1.1,0,0,1,.936-1.083,39.647,39.647,0,0,1,8.515-1.033c7.089,0,11.519,2.856,11.519,10.042V302.2A.988.988,0,0,1,501.627,303.18Zm-6.842-12.06h-2.806c-3.445,0-4.332,1.181-4.332,3.593v.444c0,2.068,1.033,2.462,3.1,2.462a9.1,9.1,0,0,0,4.037-1.084Z" transform="translate(-373.902 -266.163)" fill="#fff"/><path d="M527.642,281.176h-.394a13.262,13.262,0,0,0-6.35,1.723v19.248a1.031,1.031,0,0,1-.984,1.033h-5.957a1.074,1.074,0,0,1-1.033-1.033V275.958a.988.988,0,0,1,.984-.984h5.858a.987.987,0,0,1,.984.984v.984a10.547,10.547,0,0,1,6.646-2.363.988.988,0,0,1,.985.984v4.676C528.38,280.684,528.085,281.176,527.642,281.176Z" transform="translate(-379.542 -266.163)" fill="#fff"/><path d="M556.68,291.563h-15.7v.1c0,2.807,1.182,5.366,5.071,5.366,3.1,0,7.482-.246,9.451-.443h.148c.541,0,.936.246.936.788v3.741c0,.788-.2,1.133-1.034,1.329a37.624,37.624,0,0,1-10.092,1.181c-5.956,0-12.355-3.15-12.355-12.651v-3.446c0-7.926,4.627-12.947,12.455-12.947,8.073,0,12.159,5.513,12.159,12.947v2.856C557.715,291.12,557.321,291.563,556.68,291.563Zm-6.743-5.119c0-3.643-1.674-5.465-4.431-5.465-2.709,0-4.53,1.87-4.53,5.465v.2h8.961Z" transform="translate(-382.985 -266.163)" fill="#fff"/></g><path d="M321.8,287.708a.873.873,0,1,0-.873-.873A.873.873,0,0,0,321.8,287.708Z" transform="translate(-286.413 -258.06)" fill="#fff"/><path d="M317.5,283.056a.874.874,0,1,0-.874.873A.874.874,0,0,0,317.5,283.056Z" transform="translate(-285.53 -257.385)" fill="#fff"/><circle cx="0.873" cy="0.873" r="0.873" transform="translate(22.077 35.848)" fill="#fff"/><path d="M317.547,252.364a8.389,8.389,0,0,0-10.487,5.544L304,267.823h0l-.922,2.992-5.17-1.594a.873.873,0,1,0-.514,1.669l5.17,1.594-3.913,12.693-12.906-3.98A6.641,6.641,0,1,1,289.66,268.5l3.724,1.149a.874.874,0,0,0,.514-1.67l-3.724-1.148a8.387,8.387,0,0,0-4.941,16.03l13.74,4.237a.874.874,0,0,0,1.091-.577L304.237,273l13.526,4.171a.875.875,0,0,0,1.092-.577l4.236-13.742a8.389,8.389,0,0,0-5.544-10.487Zm-.1,22.879-12.691-3.914.664-2.157,12.693,3.913Zm3.979-12.907-2.8,9.079L305.93,267.5l2.8-9.079a6.641,6.641,0,1,1,12.692,3.913Z" transform="translate(-279.313 -251.987)" fill="#fff"/><g transform="translate(27.331 31.586)"><path d="M322.713,296.918l-7.5,4.594a1.466,1.466,0,0,0-.485,2.015l4.212,6.876a1.465,1.465,0,0,0,2.015.484l7.5-4.593a1.467,1.467,0,0,0,.484-2.016l-4.211-6.876A1.467,1.467,0,0,0,322.713,296.918ZM320.5,309.446a.366.366,0,1,1,.121-.5A.366.366,0,0,1,320.5,309.446Zm-3.828-6.251a.366.366,0,1,1,.121-.5A.365.365,0,0,1,316.672,303.2Zm7.439,2.321-1.875,1.149-1.072-2.917a1.1,1.1,0,1,1,.837-.513Zm3.266-.281a.367.367,0,1,1,.121-.5A.366.366,0,0,1,327.377,305.235Zm-3.828-6.251a.366.366,0,1,1,.121-.5A.366.366,0,0,1,323.549,298.984Z" transform="translate(-312.65 -291.69)" fill="#fff" opacity="0.66"/><path d="M314.165,296.589a2.932,2.932,0,0,1,5-3.063l1.723,2.813,1.251-.766-1.723-2.813a4.4,4.4,0,0,0-7.5,4.594l1.723,2.813,1.25-.765Z" transform="translate(-312.267 -290.659)" fill="#fff" opacity="0.66"/><path d="M322.877,297.157l-7.5,4.594a1.241,1.241,0,0,0-.411,1.705l3.317,5.415,2.911-4.468-.139-.38a1.325,1.325,0,1,1,1.267-.776l.274.3,3.219-3.966-1.232-2.011A1.242,1.242,0,0,0,322.877,297.157Zm-6.04,6.278a.592.592,0,1,1,.2-.814A.592.592,0,0,1,316.837,303.434Zm6.876-4.211a.592.592,0,1,1,.2-.814A.593.593,0,0,1,323.713,299.223Z" transform="translate(-312.696 -291.737)" fill="#fff" opacity="0.67"/><path d="M314.533,291.546a4.177,4.177,0,0,0-1.379,5.738l1.6,2.621.534-1.071-1.273-2.08a3.158,3.158,0,1,1,5.385-3.3l.911,1.488.343-1.383-.388-.634A4.179,4.179,0,0,0,314.533,291.546Z" transform="translate(-312.314 -290.706)" fill="#fff" opacity="0.67"/></g></g></g></g><path d="M12.128,0,5.344-19.712H5.216q.1,1.216.16,2.688t.064,2.88V0H2.816V-22.848h4.1l6.4,18.688h.128l6.5-18.688H24V0H21.248V-14.24q0-1.312.064-2.768t.128-2.672h-.128L14.5,0ZM35.136-17.472a5.475,5.475,0,0,1,4.208,1.44,6.284,6.284,0,0,1,1.328,4.384V0H38.656l-.48-2.4h-.1a6.905,6.905,0,0,1-2.1,2.048A5.836,5.836,0,0,1,32.992.32a4.694,4.694,0,0,1-3.52-1.344A5.133,5.133,0,0,1,28.16-4.768a4.739,4.739,0,0,1,1.808-3.968,9.358,9.358,0,0,1,5.456-1.536l2.56-.1v-1.056a4.365,4.365,0,0,0-.784-2.944,2.933,2.933,0,0,0-2.288-.864,6.837,6.837,0,0,0-2.176.352,15.869,15.869,0,0,0-2.08.864l-.864-2.048a10.3,10.3,0,0,1,2.464-1.024A10.665,10.665,0,0,1,35.136-17.472Zm2.848,9.056-2.176.1a6.357,6.357,0,0,0-3.744.992,3.128,3.128,0,0,0-1.088,2.56,2.84,2.84,0,0,0,.752,2.192,2.848,2.848,0,0,0,2,.688A4.083,4.083,0,0,0,36.784-3.12a5.1,5.1,0,0,0,1.2-3.7Zm15.1-9.056A5.342,5.342,0,0,1,57.184-16a6.682,6.682,0,0,1,1.376,4.672V0H55.84V-11.04a5.014,5.014,0,0,0-.784-3.072,2.887,2.887,0,0,0-2.448-1.024,3.625,3.625,0,0,0-3.376,1.552A9.208,9.208,0,0,0,48.288-8.9V0h-2.72V-17.152h2.176l.384,2.336h.16A4.855,4.855,0,0,1,50.32-16.8,5.928,5.928,0,0,1,53.088-17.472Zm16.192,0a5.475,5.475,0,0,1,4.208,1.44,6.284,6.284,0,0,1,1.328,4.384V0H72.8l-.48-2.4h-.1a6.905,6.905,0,0,1-2.1,2.048A5.836,5.836,0,0,1,67.136.32a4.694,4.694,0,0,1-3.52-1.344A5.133,5.133,0,0,1,62.3-4.768a4.739,4.739,0,0,1,1.808-3.968,9.358,9.358,0,0,1,5.456-1.536l2.56-.1v-1.056a4.365,4.365,0,0,0-.784-2.944,2.933,2.933,0,0,0-2.288-.864,6.837,6.837,0,0,0-2.176.352,15.869,15.869,0,0,0-2.08.864l-.864-2.048A10.3,10.3,0,0,1,66.4-17.088,10.665,10.665,0,0,1,69.28-17.472Zm2.848,9.056-2.176.1a6.357,6.357,0,0,0-3.744.992,3.128,3.128,0,0,0-1.088,2.56,2.84,2.84,0,0,0,.752,2.192,2.848,2.848,0,0,0,2,.688A4.083,4.083,0,0,0,70.928-3.12a5.1,5.1,0,0,0,1.2-3.7ZM85.12-17.472a5.773,5.773,0,0,1,2.7.624,5.485,5.485,0,0,1,2.064,1.968h.16l.352-2.272h2.24V.256a7.851,7.851,0,0,1-1.76,5.52q-1.76,1.9-5.5,1.9a12.6,12.6,0,0,1-5.408-1.056V4.1a11.017,11.017,0,0,0,2.576.928,13.034,13.034,0,0,0,2.928.32,4.366,4.366,0,0,0,3.28-1.2A4.875,4.875,0,0,0,89.92.608V0q0-.448.016-1.152a10.047,10.047,0,0,1,.08-1.152h-.128A5.275,5.275,0,0,1,85.12.32a5.4,5.4,0,0,1-4.64-2.3,11.079,11.079,0,0,1-1.664-6.56A11.165,11.165,0,0,1,80.5-15.12,5.375,5.375,0,0,1,85.12-17.472Zm.448,2.336a3.21,3.21,0,0,0-2.928,1.712,9.785,9.785,0,0,0-1.008,4.912q0,6.528,4,6.528A3.753,3.753,0,0,0,88.88-3.408a7.632,7.632,0,0,0,1.04-4.464v-.7A9.238,9.238,0,0,0,88.88-13.6,3.712,3.712,0,0,0,85.568-15.136Zm17.984-2.336a5.994,5.994,0,0,1,3.472.976,6.161,6.161,0,0,1,2.176,2.72,9.977,9.977,0,0,1,.752,3.984v1.728H99.52a7.334,7.334,0,0,0,1.3,4.528,4.325,4.325,0,0,0,3.568,1.52A10.22,10.22,0,0,0,106.9-2.3a11.021,11.021,0,0,0,2.32-.9V-.8a11.169,11.169,0,0,1-2.352.848,11.84,11.84,0,0,1-2.672.272A6.785,6.785,0,0,1,98.7-2.016a9.678,9.678,0,0,1-1.968-6.432A10.692,10.692,0,0,1,98.56-15.1,5.959,5.959,0,0,1,103.552-17.472Zm-.032,2.24a3.331,3.331,0,0,0-2.768,1.28,6.8,6.8,0,0,0-1.2,3.712h7.616a6.677,6.677,0,0,0-.88-3.568A3.017,3.017,0,0,0,103.52-15.232Zm27.328-2.24A4.857,4.857,0,0,1,134.72-16,7.085,7.085,0,0,1,136-11.3V0h-2.72V-11.04q0-4.1-3.008-4.1a3.323,3.323,0,0,0-3.056,1.456,7.978,7.978,0,0,0-.912,4.208V0h-2.688V-11.072a5.087,5.087,0,0,0-.752-3.072,2.688,2.688,0,0,0-2.288-.992,3.152,3.152,0,0,0-3.1,1.648,10.268,10.268,0,0,0-.832,4.56V0h-2.72V-17.152H116.1l.384,2.336h.16a4.674,4.674,0,0,1,1.9-2,5.413,5.413,0,0,1,2.64-.656q3.584,0,4.608,2.816h.16A5,5,0,0,1,128-16.784,5.919,5.919,0,0,1,130.848-17.472Zm15.968,0a5.994,5.994,0,0,1,3.472.976,6.161,6.161,0,0,1,2.176,2.72,9.977,9.977,0,0,1,.752,3.984v1.728H142.784a7.334,7.334,0,0,0,1.3,4.528,4.325,4.325,0,0,0,3.568,1.52A10.22,10.22,0,0,0,150.16-2.3a11.021,11.021,0,0,0,2.32-.9V-.8a11.169,11.169,0,0,1-2.352.848,11.84,11.84,0,0,1-2.672.272,6.785,6.785,0,0,1-5.488-2.336A9.678,9.678,0,0,1,140-8.448a10.692,10.692,0,0,1,1.824-6.656A5.959,5.959,0,0,1,146.816-17.472Zm-.032,2.24a3.331,3.331,0,0,0-2.768,1.28,6.8,6.8,0,0,0-1.2,3.712h7.616a6.677,6.677,0,0,0-.88-3.568A3.017,3.017,0,0,0,146.784-15.232Zm17.92-2.24A5.342,5.342,0,0,1,168.8-16a6.682,6.682,0,0,1,1.376,4.672V0h-2.72V-11.04a5.014,5.014,0,0,0-.784-3.072,2.887,2.887,0,0,0-2.448-1.024,3.625,3.625,0,0,0-3.376,1.552A9.208,9.208,0,0,0,159.9-8.9V0h-2.72V-17.152h2.176l.384,2.336h.16a4.855,4.855,0,0,1,2.032-1.984A5.928,5.928,0,0,1,164.7-17.472Zm15.52,15.488a6.809,6.809,0,0,0,1.12-.1,5.137,5.137,0,0,0,.992-.256V-.192A5.324,5.324,0,0,1,181.1.176a7.9,7.9,0,0,1-1.488.144A4.52,4.52,0,0,1,176.48-.8q-1.248-1.12-1.248-3.936v-10.24h-2.144v-1.376l2.208-.96.96-3.776h1.7v3.936h4.192v2.176h-4.192V-4.864a3.345,3.345,0,0,0,.592,2.16A2.052,2.052,0,0,0,180.224-1.984Z" transform="translate(299 91)" fill="#fff"/></g></svg>