<svg xmlns="http://www.w3.org/2000/svg" width="19.259" height="19.002" viewBox="0 0 19.259 19.002"><g transform="translate(-999.371 -586.5)"><path d="M.866,3.23a1.731,1.731,0,1,1,1.731,0v7.157H.866Z" transform="translate(1007.269 594.615)" fill="#43425d" stroke="rgba(0,0,0,0)" stroke-miterlimit="10" stroke-width="1"/><path d="M9.447,8.862l-1.3-1.22a3.3,3.3,0,0,0,.816-3.78A3.7,3.7,0,0,0,5.534,1.731,3.7,3.7,0,0,0,2.12,3.868a3.306,3.306,0,0,0,.8,3.774l-1.3,1.22a4.966,4.966,0,0,1,0-7.342,5.8,5.8,0,0,1,7.831,0,4.966,4.966,0,0,1,0,7.342Z" transform="translate(1003.466 590.747)" fill="#43425d" stroke="rgba(0,0,0,0)" stroke-miterlimit="10" stroke-width="1"/><path d="M15.363,15.466l-1.269-1.277a7.282,7.282,0,0,0,1.563-7.9,7.182,7.182,0,0,0-13.3,0,7.282,7.282,0,0,0,1.563,7.9L2.637,15.466A9.1,9.1,0,0,1,.685,5.593a8.977,8.977,0,0,1,16.63,0,9.1,9.1,0,0,1-1.952,9.873Z" transform="translate(1000 587)" fill="#43425d" stroke="rgba(0,0,0,0)" stroke-miterlimit="10" stroke-width="1"/></g></svg>