<svg xmlns="http://www.w3.org/2000/svg" width="12" height="15" viewBox="0 0 12 15"><path d="M10.5,1.875H8A1.942,1.942,0,0,0,6,0,1.942,1.942,0,0,0,4,1.875H1.5A1.456,1.456,0,0,0,0,3.281V13.594A1.456,1.456,0,0,0,1.5,15h9A1.456,1.456,0,0,0,12,13.594V3.281A1.456,1.456,0,0,0,10.5,1.875ZM6,1.172a.726.726,0,0,1,.75.7.752.752,0,0,1-1.5,0A.726.726,0,0,1,6,1.172ZM9.788,7.963,5.319,12.117a.393.393,0,0,1-.531,0L2.206,9.674a.337.337,0,0,1,0-.5L3.1,8.35a.393.393,0,0,1,.531,0L5.066,9.712,8.378,6.63a.393.393,0,0,1,.531,0l.881.832A.337.337,0,0,1,9.788,7.963Z" fill="#636461"/></svg>