<svg xmlns="http://www.w3.org/2000/svg" width="12" height="12" viewBox="0 0 12 12"><path d="M33.019,7.83,29.383,6l3.636-1.83a.539.539,0,0,0,.236-.774l-.5-.791a.645.645,0,0,0-.85-.2L28.36,4.376l.089-3.8A.588.588,0,0,0,27.836,0h-1a.588.588,0,0,0-.613.575l.089,3.8L22.767,2.4a.645.645,0,0,0-.85.2l-.5.791a.539.539,0,0,0,.236.774L25.292,6,21.656,7.83a.539.539,0,0,0-.236.774l.5.791a.645.645,0,0,0,.85.2l3.547-1.971-.089,3.8a.588.588,0,0,0,.614.575h1a.588.588,0,0,0,.614-.575l-.089-3.8L31.907,9.6a.645.645,0,0,0,.85-.2l.5-.791A.539.539,0,0,0,33.019,7.83Z" transform="translate(-21.337)" fill="#93c01f"/></svg>