<svg xmlns="http://www.w3.org/2000/svg" width="789.98" height="963.062" viewBox="0 0 789.98 963.062"><path d="M1114.035,531.962a369.587,369.587,0,0,1-36.233,42.06l-.014.012-.009.011a371.067,371.067,0,0,1-159.89,94.411l7.728,26.817a398.922,398.922,0,0,0,171.921-101.518l-.012.012q8.541-8.52,16.509-17.521Z" transform="translate(-324.056 143.942)" fill="#ff6f00"/><path d="M925.765,804.732A503.112,503.112,0,0,1,608.826,516.086L583.034,526.75A531.04,531.04,0,0,0,917.522,831.4Z" transform="translate(-583.034 131.663)" fill="#e6e7e8"/><path d="M599,497.477A476.535,476.535,0,0,1,732.641,234.326c10.649-10.648,21.9-20.83,33.381-30.3l-6.344-7.689c-11.722,9.667-23.2,20.057-34.083,30.941A486.5,486.5,0,0,0,589.148,495.933Z" transform="translate(-578.305 -115.632)" fill="#f90"/><path d="M686.3,396.064a358.962,358.962,0,0,1,363.838-183.093l1.364-9.874a368.108,368.108,0,0,0-373.952,188.2Z" transform="translate(-509.937 -113.079)" fill="#f90"/><g transform="translate(35.734)"><path d="M1357.43,262.73A455.315,455.315,0,0,0,736.45,928.06l14.1-14.091A435.385,435.385,0,0,1,1357.43,289.63Z" transform="translate(-603.184 -150.828)" fill="#d0d2d3"/><path d="M1072.646,586.022a436.8,436.8,0,0,1-101.24,71.351l9.06,17.757a457.253,457.253,0,0,0,92.18-62.215Z" transform="translate(-318.4 185.752)" fill="#d0d2d3"/></g><path d="M1298.9,430.433a319.886,319.886,0,0,0-71.949-109.853c-125.358-125.356-328.7-125.356-454.062,0s-125.357,328.583,0,453.943c125.358,125.236,328.7,125.236,454.062,0A319.894,319.894,0,0,0,1298.9,664.668Z" transform="translate(-508.916 -92.255)" fill="#e6e7e8" fill-rule="evenodd"/></svg>