<svg xmlns="http://www.w3.org/2000/svg" width="698.23" height="248.532" viewBox="0 0 698.23 248.532"><g transform="translate(0)"><path d="M137.285,651.382c-10.623,8.76-21.025,18.177-30.888,28.04-2.711,2.713-5.366,5.474-8,8.256v13.288q7-7.734,14.384-15.155c9.651-9.649,19.843-18.878,30.25-27.46Z" transform="translate(-98.4 -578.244)" fill="#636461"/><path d="M126.515,824.772a325.28,325.28,0,0,1,325.221-158l1.234-8.949A333.55,333.55,0,0,0,116.081,824.772Z" transform="translate(-87.665 -576.24)" fill="#f90"/><path d="M709.693,726.733a412.368,412.368,0,0,0-583.618,0Q111.326,741.491,98.4,757.342v29.576a394.79,394.79,0,0,1,678.436,67.487H796.63A411.635,411.635,0,0,0,709.693,726.733Z" transform="translate(-98.4 -605.874)" fill="#d0d2d3"/><path d="M628.261,808.424a292.242,292.242,0,0,0-34.547-41.612c-113.6-113.606-297.887-113.606-411.493,0a292.354,292.354,0,0,0-34.547,41.612Z" transform="translate(-68.484 -559.893)" fill="#e6e7e8" fill-rule="evenodd"/></g></svg>