<svg xmlns="http://www.w3.org/2000/svg" width="541.434" height="383.606" viewBox="0 0 541.434 383.606"><g transform="translate(0)"><g transform="translate(214.208)"><path d="M473.325,145.8A336.629,336.629,0,0,1,378.61,309.074l-.014.011-.008.01a336.251,336.251,0,0,1-146.9,82.072l6.422,24.462a361.5,361.5,0,0,0,157.956-88.25l-.013.013-.01.01a361.923,361.923,0,0,0,101.84-175.543L473.325,145.8Z" transform="translate(-231.685 -53.739)" fill="#ff6f00"/><g transform="translate(85.317)"><path d="M508.432,88.516c.2,7.033.243,14.069.074,21.1A395.124,395.124,0,0,1,476.076,257.35a393.325,393.325,0,0,1-89.767,128.406,395.368,395.368,0,0,1-101.538,70.081l7.825,16.285a413.63,413.63,0,0,0,106.177-73.286v0a411.336,411.336,0,0,0,93.878-134.3,413.209,413.209,0,0,0,33.917-154.488q.258-10.764-.061-21.533Z" transform="translate(-284.771 -88.516)" fill="#636461"/></g></g><path d="M517.874,88.516H98.4v272.53c106.4,52.427,238.7,36.211,329.546-50.308A290.171,290.171,0,0,0,517.874,88.516Z" transform="translate(-98.4 -88.516)" fill="#e6e7e8" fill-rule="evenodd"/></g></svg>