<svg xmlns="http://www.w3.org/2000/svg" width="30" height="28" viewBox="0 0 30 28"><g transform="translate(-1763 -295)"><rect width="30" height="28" transform="translate(1763 295)" fill="none" opacity="0.28"/><path d="M5.286,9.562H3.857a.416.416,0,0,1-.429-.4V7.836a.416.416,0,0,1,.429-.4H5.286a.416.416,0,0,1,.429.4V9.164A.416.416,0,0,1,5.286,9.562Zm3.857-.4V7.836a.416.416,0,0,0-.429-.4H7.286a.416.416,0,0,0-.429.4V9.164a.416.416,0,0,0,.429.4H8.714A.416.416,0,0,0,9.143,9.164Zm3.429,0V7.836a.416.416,0,0,0-.429-.4H10.714a.416.416,0,0,0-.429.4V9.164a.416.416,0,0,0,.429.4h1.429A.416.416,0,0,0,12.571,9.164ZM9.143,12.352V11.023a.416.416,0,0,0-.429-.4H7.286a.416.416,0,0,0-.429.4v1.328a.416.416,0,0,0,.429.4H8.714A.416.416,0,0,0,9.143,12.352Zm-3.429,0V11.023a.416.416,0,0,0-.429-.4H3.857a.416.416,0,0,0-.429.4v1.328a.416.416,0,0,0,.429.4H5.286A.416.416,0,0,0,5.714,12.352Zm6.857,0V11.023a.416.416,0,0,0-.429-.4H10.714a.416.416,0,0,0-.429.4v1.328a.416.416,0,0,0,.429.4h1.429A.416.416,0,0,0,12.571,12.352ZM16,3.719V15.406A1.658,1.658,0,0,1,14.286,17H1.714A1.658,1.658,0,0,1,0,15.406V3.719A1.658,1.658,0,0,1,1.714,2.125H3.429V.4A.416.416,0,0,1,3.857,0H5.286a.416.416,0,0,1,.429.4V2.125h4.571V.4a.416.416,0,0,1,.429-.4h1.429a.416.416,0,0,1,.429.4V2.125h1.714A1.658,1.658,0,0,1,16,3.719ZM14.286,15.207V5.313H1.714v9.895a.208.208,0,0,0,.214.2H14.071A.208.208,0,0,0,14.286,15.207Z" transform="translate(1770 300)" fill="#b1b1b0"/></g></svg>