<svg xmlns="http://www.w3.org/2000/svg" width="16" height="16" viewBox="0 0 16 16"><path d="M14.286,32H1.714A1.715,1.715,0,0,0,0,33.714V46.286A1.715,1.715,0,0,0,1.714,48H14.286A1.715,1.715,0,0,0,16,46.286V33.714A1.715,1.715,0,0,0,14.286,32Zm-1.143,9a.43.43,0,0,1-.429.429H9.429v3.286A.43.43,0,0,1,9,45.143H7a.43.43,0,0,1-.429-.429V41.429H3.286A.43.43,0,0,1,2.857,41V39a.43.43,0,0,1,.429-.429H6.571V35.286A.43.43,0,0,1,7,34.857H9a.43.43,0,0,1,.429.429v3.286h3.286a.43.43,0,0,1,.429.429Z" transform="translate(0 -32)" fill="#93c01f"/></svg>