<svg xmlns="http://www.w3.org/2000/svg" xmlns:xlink="http://www.w3.org/1999/xlink" width="6.32" height="5.055" viewBox="0 0 6.32 5.055"><defs><clipPath id="a"><path d="M1.674,4.956l-1.6-1.74A.365.365,0,0,1,.1,2.745a.377.377,0,0,1,.48.025L1.932,4.241,5.74.1A.378.378,0,0,1,6.221.074a.365.365,0,0,1,.025.471L2.193,4.953a.284.284,0,0,1-.092.065.372.372,0,0,1-.168.038A.355.355,0,0,1,1.674,4.956Z" transform="translate(0 0)" fill="none"/></clipPath></defs><g transform="translate(0 0)"><path d="M1.674,4.956l-1.6-1.74A.365.365,0,0,1,.1,2.745a.377.377,0,0,1,.48.025L1.932,4.241,5.74.1A.378.378,0,0,1,6.221.074a.365.365,0,0,1,.025.471L2.193,4.953a.284.284,0,0,1-.092.065.372.372,0,0,1-.168.038A.355.355,0,0,1,1.674,4.956Z" transform="translate(0 0)" fill="none"/><g transform="translate(0 0)" clip-path="url(#a)"><g transform="translate(-0.651 -1.376)"><rect width="7.143" height="7.143" fill="#fff"/></g></g></g></svg>