<svg xmlns="http://www.w3.org/2000/svg" width="12" height="13" viewBox="0 0 12 13"><path d="M1.159,11.835A3.83,3.83,0,0,1,1.2,6.311L6.814.863a3.113,3.113,0,0,1,4.3,0,2.846,2.846,0,0,1,0,4.12L6.22,9.727A2.075,2.075,0,0,1,3.328,9.7a1.894,1.894,0,0,1,.039-2.716l3.85-3.728a.445.445,0,0,1,.606-.006l.612.568a.391.391,0,0,1,.006.574L4.592,8.123a.33.33,0,0,0-.017.464.3.3,0,0,0,.42,0l4.9-4.744A1.281,1.281,0,0,0,9.892,2,1.334,1.334,0,0,0,8.04,2L2.421,7.446A2.264,2.264,0,0,0,2.389,10.7a2.372,2.372,0,0,0,3.3.007l4.609-4.469a.445.445,0,0,1,.606-.007l.613.568a.391.391,0,0,1,.007.574L6.911,11.847a4.151,4.151,0,0,1-5.753-.012Z" transform="translate(0 0)" fill="#43425d"/></svg>