<svg xmlns="http://www.w3.org/2000/svg" xmlns:xlink="http://www.w3.org/1999/xlink" width="8.848" height="7.077" viewBox="0 0 8.848 7.077"><defs><clipPath id="a"><path d="M2.344,6.938.1,4.5a.511.511,0,0,1,.034-.659.528.528,0,0,1,.673.035l1.894,2.06L8.036.139A.529.529,0,0,1,8.709.1a.511.511,0,0,1,.034.659L3.07,6.934a.4.4,0,0,1-.129.091.521.521,0,0,1-.235.053A.5.5,0,0,1,2.344,6.938Z" transform="translate(0 0)" fill="none"/></clipPath></defs><g transform="translate(-0.911 -1.927)"><g transform="translate(0.911 1.927)"><path d="M2.344,6.938.1,4.5a.511.511,0,0,1,.034-.659.528.528,0,0,1,.673.035l1.894,2.06L8.036.139A.529.529,0,0,1,8.709.1a.511.511,0,0,1,.034.659L3.07,6.934a.4.4,0,0,1-.129.091.521.521,0,0,1-.235.053A.5.5,0,0,1,2.344,6.938Z" transform="translate(0 0)" fill="none"/><g transform="translate(0 0)" clip-path="url(#a)"><g transform="translate(-0.911 -1.927)"><rect width="10" height="10" fill="#fff"/></g></g></g></g></svg>