<svg xmlns="http://www.w3.org/2000/svg" width="17" height="16.998" viewBox="0 0 17 16.998"><path d="M9.828,12.823H7.172a.8.8,0,0,1-.8-.8V6.448H3.463a.663.663,0,0,1-.468-1.132L8.045.262a.643.643,0,0,1,.906,0l5.054,5.054a.663.663,0,0,1-.468,1.132H10.625v5.578A.8.8,0,0,1,9.828,12.823ZM17,12.557v3.719a.8.8,0,0,1-.8.8H.8a.8.8,0,0,1-.8-.8V12.557a.8.8,0,0,1,.8-.8H5.313v.266a1.861,1.861,0,0,0,1.859,1.859H9.828a1.861,1.861,0,0,0,1.859-1.859V11.76H16.2A.8.8,0,0,1,17,12.557Zm-4.117,2.922a.664.664,0,1,0-.664.664A.666.666,0,0,0,12.883,15.479Zm2.125,0a.664.664,0,1,0-.664.664A.666.666,0,0,0,15.008,15.479Z" transform="translate(0 -0.075)" fill="#636461"/></svg>