<svg xmlns="http://www.w3.org/2000/svg" width="12.935" height="12.935" viewBox="0 0 12.935 12.935"><g transform="translate(-297.258 -479.648)"><g transform="translate(297.258 479.648)" fill="none"><path d="M6.467,0A6.467,6.467,0,1,1,0,6.467,6.467,6.467,0,0,1,6.467,0Z" stroke="none"/><path d="M 6.467432022094727 2.000001907348633 C 4.004081726074219 2.000001907348633 2.000001907348633 4.004081726074219 2.000001907348633 6.467432022094727 C 2.000001907348633 8.930782318115234 4.004081726074219 10.93486213684082 6.467432022094727 10.93486213684082 C 8.930782318115234 10.93486213684082 10.93486213684082 8.930782318115234 10.93486213684082 6.467432022094727 C 10.93486213684082 4.004081726074219 8.930782318115234 2.000001907348633 6.467432022094727 2.000001907348633 M 6.467432022094727 1.9073486328125e-06 C 10.03929233551025 1.9073486328125e-06 12.93486213684082 2.895571708679199 12.93486213684082 6.467432022094727 C 12.93486213684082 10.03929233551025 10.03929233551025 12.93486213684082 6.467432022094727 12.93486213684082 C 2.895571708679199 12.93486213684082 1.9073486328125e-06 10.03929233551025 1.9073486328125e-06 6.467432022094727 C 1.9073486328125e-06 2.895571708679199 2.895571708679199 1.9073486328125e-06 6.467432022094727 1.9073486328125e-06 Z" stroke="none" fill="#ececec"/></g><path d="M8309.007,4406.011l5.456,5.373" transform="translate(-8007.965 -3922.577)" fill="none" stroke="#ececec" stroke-width="1.5"/><path d="M0,0,5.456,5.373" transform="translate(306.416 483.434) rotate(90)" fill="none" stroke="#ececec" stroke-width="1.5"/></g></svg>