<svg xmlns="http://www.w3.org/2000/svg" width="16" height="15" viewBox="0 0 16 15"><path d="M11.183,2.535l2.506,2.643a.3.3,0,0,1,0,.4l-6.067,6.4-2.578.3a.556.556,0,0,1-.6-.63l.286-2.719,6.067-6.4a.262.262,0,0,1,.383,0Zm4.5-.671L14.328.434a1.047,1.047,0,0,0-1.533,0l-.983,1.037a.3.3,0,0,0,0,.4l2.506,2.643a.262.262,0,0,0,.383,0l.983-1.037a1.191,1.191,0,0,0,0-1.618Zm-5.017,8.378v2.983H1.778V3.848H8.161a.333.333,0,0,0,.236-.1L9.508,2.573a.354.354,0,0,0-.236-.6H1.333A1.372,1.372,0,0,0,0,3.379V13.693A1.372,1.372,0,0,0,1.333,15.1h9.778a1.372,1.372,0,0,0,1.333-1.407V9.07a.332.332,0,0,0-.569-.249L10.764,9.993A.371.371,0,0,0,10.667,10.242Z" transform="translate(0 -0.1)" fill="#636461"/></svg>