<svg xmlns="http://www.w3.org/2000/svg" width="20" height="20" viewBox="0 0 20 20"><g transform="translate(-1571 -237)"><path d="M5.286,9.562H3.857a.416.416,0,0,1-.429-.4V7.836a.416.416,0,0,1,.429-.4H5.286a.416.416,0,0,1,.429.4V9.164A.416.416,0,0,1,5.286,9.562Zm3.857-.4V7.836a.416.416,0,0,0-.429-.4H7.286a.416.416,0,0,0-.429.4V9.164a.416.416,0,0,0,.429.4H8.714A.416.416,0,0,0,9.143,9.164Zm3.429,0V7.836a.416.416,0,0,0-.429-.4H10.714a.416.416,0,0,0-.429.4V9.164a.416.416,0,0,0,.429.4h1.429A.416.416,0,0,0,12.571,9.164ZM9.143,12.352V11.023a.416.416,0,0,0-.429-.4H7.286a.416.416,0,0,0-.429.4v1.328a.416.416,0,0,0,.429.4H8.714A.416.416,0,0,0,9.143,12.352Zm-3.429,0V11.023a.416.416,0,0,0-.429-.4H3.857a.416.416,0,0,0-.429.4v1.328a.416.416,0,0,0,.429.4H5.286A.416.416,0,0,0,5.714,12.352Zm6.857,0V11.023a.416.416,0,0,0-.429-.4H10.714a.416.416,0,0,0-.429.4v1.328a.416.416,0,0,0,.429.4h1.429A.416.416,0,0,0,12.571,12.352ZM16,3.719V15.406A1.658,1.658,0,0,1,14.286,17H1.714A1.658,1.658,0,0,1,0,15.406V3.719A1.658,1.658,0,0,1,1.714,2.125H3.429V.4A.416.416,0,0,1,3.857,0H5.286a.416.416,0,0,1,.429.4V2.125h4.571V.4a.416.416,0,0,1,.429-.4h1.429a.416.416,0,0,1,.429.4V2.125h1.714A1.658,1.658,0,0,1,16,3.719ZM14.286,15.207V5.313H1.714v9.895a.208.208,0,0,0,.214.2H14.071A.208.208,0,0,0,14.286,15.207Z" transform="translate(1571 237)" fill="#fff"/><g transform="translate(-0.685 -2.022)"><circle cx="6" cy="6" r="6" transform="translate(1579.685 247.022)" fill="#b1b1b0"/><path d="M3.061-1.155,4.437.623H2.656l-.7-.9A3.95,3.95,0,0,1,.027.2,3.928,3.928,0,0,1-2.931-1.029,4.078,4.078,0,0,1-4.109-3.953a4.084,4.084,0,0,1,.548-2.081A4.083,4.083,0,0,1-2.053-7.541,4.028,4.028,0,0,1,.008-8.1,3.93,3.93,0,0,1,2.9-6.886,4.04,4.04,0,0,1,4.1-3.926,4.019,4.019,0,0,1,3.061-1.155Zm-.94-1.214A2.744,2.744,0,0,0,2.6-3.937a2.641,2.641,0,0,0-.758-1.907A2.457,2.457,0,0,0,.008-6.628a2.493,2.493,0,0,0-1.855.763,2.656,2.656,0,0,0-.747,1.939,2.526,2.526,0,0,0,.942,2.073,2.589,2.589,0,0,0,1.673.6,2.466,2.466,0,0,0,1.011-.21L-.383-3.287H1.411Z" transform="translate(1585.485 256.922)" fill="#fff"/></g></g></svg>