<svg xmlns="http://www.w3.org/2000/svg" xmlns:xlink="http://www.w3.org/1999/xlink" width="9.958" height="7.965" viewBox="0 0 9.958 7.965"><defs><clipPath id="a"><path d="M2.638,7.808.117,5.066a.575.575,0,0,1,.039-.742.6.6,0,0,1,.757.04L3.045,6.682l6-6.526A.6.6,0,0,1,9.8.117a.575.575,0,0,1,.039.742L3.455,7.8a.448.448,0,0,1-.146.1.587.587,0,0,1-.265.059A.559.559,0,0,1,2.638,7.808Z" transform="translate(0 0)" fill="none"/></clipPath></defs><g transform="translate(-1.025 -2.169)"><g transform="translate(1.025 2.169)"><path d="M2.638,7.808.117,5.066a.575.575,0,0,1,.039-.742.6.6,0,0,1,.757.04L3.045,6.682l6-6.526A.6.6,0,0,1,9.8.117a.575.575,0,0,1,.039.742L3.455,7.8a.448.448,0,0,1-.146.1.587.587,0,0,1-.265.059A.559.559,0,0,1,2.638,7.808Z" transform="translate(0 0)" fill="none"/><g clip-path="url(#a)"><g transform="translate(-1.025 -2.169)"><rect width="12" height="12" fill="rgba(0,0,0,0.25)"/></g></g></g></g></svg>