<svg xmlns="http://www.w3.org/2000/svg" width="16" height="26" viewBox="0 0 16 26"><g transform="translate(-1014.371 -140.424)"><path d="M1027.971,140.424h-11.2a2.419,2.419,0,0,0-2.4,2.438v21.125a2.419,2.419,0,0,0,2.4,2.437h11.2a2.419,2.419,0,0,0,2.4-2.437V142.862A2.419,2.419,0,0,0,1027.971,140.424Zm-5.6,24.375a1.625,1.625,0,1,1,1.6-1.625A1.61,1.61,0,0,1,1022.371,164.8Zm5.6-5.484a.607.607,0,0,1-.6.609h-10a.606.606,0,0,1-.6-.609V143.471a.606.606,0,0,1,.6-.609h10a.608.608,0,0,1,.6.609Z" transform="translate(0 0)" fill="#b1b1b0"/></g></svg>