<svg xmlns="http://www.w3.org/2000/svg" width="23" height="25" viewBox="0 0 23 25"><g transform="translate(-986.499 -476.707)"><g transform="translate(986.499 476.707)"><g transform="translate(5.075 2.761)"><path d="M992.727,488.884a.877.877,0,0,1-.494-.152,5.969,5.969,0,0,1,0-10.247.877.877,0,1,1,.99,1.449,4.221,4.221,0,0,0,0,7.348.877.877,0,0,1-.5,1.6Z" transform="translate(-989.327 -478.335)" fill="#b1b1b0"/></g><g transform="translate(0 0.001)"><path d="M991.178,492.518a1.1,1.1,0,0,1-.6-.182,9.054,9.054,0,0,1,0-15.7,1.082,1.082,0,0,1,1.486.274,1.022,1.022,0,0,1-.28,1.447,7.009,7.009,0,0,0,0,12.261,1.026,1.026,0,0,1,.279,1.45A1.082,1.082,0,0,1,991.178,492.518Z" transform="translate(-986.031 -476.45)" fill="#b1b1b0"/></g><g transform="translate(13.645 2.76)"><path d="M995.776,488.884a.877.877,0,0,1-.494-1.6,4.22,4.22,0,0,0,0-7.348.877.877,0,0,1,.988-1.449,5.966,5.966,0,0,1,0,10.247A.877.877,0,0,1,995.776,488.884Z" transform="translate(-994.9 -478.334)" fill="#b1b1b0"/></g><g transform="translate(16.778 0)"><path d="M998.043,492.518a1.082,1.082,0,0,1-.887-.456,1.022,1.022,0,0,1,.282-1.447,7.008,7.008,0,0,0,0-12.261,1.022,1.022,0,0,1-.282-1.447,1.084,1.084,0,0,1,1.487-.274,9.051,9.051,0,0,1,0,15.7A1.086,1.086,0,0,1,998.043,492.518Z" transform="translate(-996.969 -476.45)" fill="#b1b1b0"/></g></g><path d="M996.576,482.5a2.273,2.273,0,1,0-3.224,2.051v14.769a.49.49,0,0,0,.488.488h.928a.489.489,0,0,0,.486-.488V484.552A2.266,2.266,0,0,0,996.576,482.5Z" transform="translate(3.696 1.897)" fill="#b1b1b0"/></g></svg>