<svg xmlns="http://www.w3.org/2000/svg" width="16" height="16" viewBox="0 0 16 16"><path d="M3.711,5.578,3,4.867a6.224,6.224,0,0,1,8.889,0l-.711.711A5.559,5.559,0,0,0,7.444,4.067,5.559,5.559,0,0,0,3.711,5.578Zm.8.711A4.183,4.183,0,0,1,7.444,5.044a4.183,4.183,0,0,1,2.933,1.244L9.667,7a3.086,3.086,0,0,0-2.222-.889A3.086,3.086,0,0,0,5.222,7Zm.267,5.6H6.556V8.333H8.333v3.556h8.889A1.783,1.783,0,0,1,19,13.667v3.556A1.783,1.783,0,0,1,17.222,19H4.778A1.783,1.783,0,0,1,3,17.222V13.667A1.783,1.783,0,0,1,4.778,11.889Zm9.778,4.444h1.778V14.556H14.556Zm-3.111,0h1.778V14.556H11.444Zm-3.111,0h1.778V14.556H8.333Z" transform="translate(-3 -3)" fill="#93c01f"/></svg>