<svg xmlns="http://www.w3.org/2000/svg" width="20" height="20" viewBox="0 0 20 20"><g transform="translate(-5201 -16211.039)"><g transform="translate(5201 16211.039)"><g transform="translate(0 0)"><circle cx="10" cy="10" r="10" fill="#d3120d"/></g><g transform="translate(3.174 2.93)"><path d="M175.388,395.437l.6,1.842h1.935l-1.565,1.137.6,1.842-1.567-1.139-1.565,1.139.6-1.842-1.565-1.137h1.935Z" transform="translate(-172.856 -394.639)" fill="#ffd300"/><path d="M180.139,394.639l-.058.639.591.251-.626.144-.058.639-.328-.551-.626.142.421-.484-.328-.551.591.253Z" transform="translate(-172.856 -394.639)" fill="#ffd300"/><path d="M182.2,396.606l-.3.567.446.463-.632-.112-.3.565-.088-.635-.63-.112.577-.281-.091-.635.446.46Z" transform="translate(-172.856 -394.639)" fill="#ffd300"/><path d="M182.39,399.569l-.507.393.216.6-.53-.36-.509.393.181-.616-.53-.36.642-.021.179-.616.216.6Z" transform="translate(-172.856 -394.639)" fill="#ffd300"/><path d="M180.681,401.68l-.619.17-.03.639-.353-.535-.619.17.4-.5-.351-.535.6.226.4-.5-.028.639Z" transform="translate(-172.856 -394.639)" fill="#ffd300"/></g></g></g></svg>