<svg xmlns="http://www.w3.org/2000/svg" width="20" height="20" viewBox="0 0 20 20"><g transform="translate(-0.558 -5.69)"><g transform="translate(0.558 5.69)"><path d="M19.057,6.308a9.057,9.057,0,0,1-.808,1.535H1.4A9.058,9.058,0,0,1,.592,6.308Z" transform="translate(0.175 7.541)" fill="#fff"/><path d="M20.028,6.239A8.986,8.986,0,0,1,19.535,7.8H1.064A8.986,8.986,0,0,1,.57,6.239Z" transform="translate(-0.299 6.064)" fill="#b12233"/><path d="M20.514,6.17a8.673,8.673,0,0,1-.247,1.557H.806A11.276,11.276,0,0,1,.559,6.17Z" transform="translate(-0.536 4.586)" fill="#fff"/><path d="M17.468,6.376a10.3,10.3,0,0,1-1.211,1.557H1.839A10.3,10.3,0,0,1,.628,6.376Z" transform="translate(0.952 8.997)" fill="#b12233"/><path d="M11.376,6.513A9.718,9.718,0,0,1,6.082,8.07,9.737,9.737,0,0,1,.766,6.513Z" transform="translate(3.929 11.93)" fill="#b12233"/><path d="M15.084,6.445A9.516,9.516,0,0,1,13.2,7.98H2.563A10.207,10.207,0,0,1,.682,6.445Z" transform="translate(2.117 10.463)" fill="#fff"/><path d="M15.084,7.316H.682A10.333,10.333,0,0,1,2.563,5.759H13.2A9.626,9.626,0,0,1,15.084,7.316Z" transform="translate(2.117 -4.202)" fill="#fff"/><path d="M11.376,7.247H.766a8.354,8.354,0,0,1,.983-.542l.112-.045L2.2,6.5l.156-.068A9.8,9.8,0,0,1,6.06,5.69h.022A9.911,9.911,0,0,1,11.376,7.247Z" transform="translate(3.929 -5.69)" fill="#b12233"/><path d="M17.468,7.363H.628L.9,6.957l.045-.023a8.736,8.736,0,0,1,.9-1.106H16.257A11.359,11.359,0,0,1,17.468,7.363Z" transform="translate(0.952 -2.736)" fill="#b12233"/><path d="M20.028,7.5H.57a9.4,9.4,0,0,1,.494-1.535H19.535A9.4,9.4,0,0,1,20.028,7.5Z" transform="translate(-0.299 0.198)" fill="#b12233"/><path d="M19.057,7.453H.592L.727,7.16l.359-.7L1.4,5.9h16.85A10.232,10.232,0,0,1,19.057,7.453Z" transform="translate(0.175 -1.28)" fill="#fff"/><path d="M20.514,7.59H.559l.022-.2.067-.564.157-.79H20.267A9.363,9.363,0,0,1,20.514,7.59Z" transform="translate(-0.536 1.653)" fill="#fff"/><path d="M20.558,6.869l-.022.767H.58L.558,6.869.58,6.1H20.536Z" transform="translate(-0.558 3.131)" fill="#b12233"/></g><g transform="translate(0.558 5.69)"><path d="M10.6,5.69V16.524H.581l-.023-.767.023-.767.023-.2.068-.564.158-.79a9.36,9.36,0,0,1,.5-1.535l.135-.293.361-.7.316-.564.271-.406.045-.023a8.747,8.747,0,0,1,.9-1.106,10.4,10.4,0,0,1,1.9-1.557,8.468,8.468,0,0,1,.993-.542l.113-.045L6.7,6.5l.158-.068A9.993,9.993,0,0,1,10.6,5.69Z" transform="translate(-0.558 -5.69)" fill="#3c3b6d"/><g transform="translate(0.045 0.526)"><g transform="translate(5.652)"><path d="M1.519,5.713l.142.433h.458l-.37.271.142.436-.372-.271-.37.271.142-.436-.37-.271h.458Z" transform="translate(1.567 -5.713)" fill="#fff"/><path d="M1.686,6.542l.034.108-.147-.108L1.35,6.38l-.223.163L.98,6.65l.034-.108.106-.327L.81,5.989l.1-.045h.3l.052-.158.158-.063.074.221h.456l-.368.271Z" transform="translate(-0.81 -5.511)" fill="#fff"/></g><g transform="translate(3.045 2.165)"><path d="M1.519,5.809l.142.436h.458l-.37.269.142.436L1.519,6.68l-.37.269.142-.436-.37-.269h.458Z" transform="translate(4.174 -5.809)" fill="#fff"/><path d="M1.408,5.809l.142.436h.456l-.37.269.142.436-.37-.269-.37.269.142-.436L.808,6.245h.458Z" transform="translate(1.738 -5.809)" fill="#fff"/><path d="M1.3,5.809l.14.436h.458l-.37.269.142.436L1.3,6.68l-.372.269.142-.436-.37-.269h.458Z" transform="translate(-0.695 -5.809)" fill="#fff"/></g><g transform="translate(0.858 4.331)"><path d="M1.519,5.905l.142.436h.458l-.37.269.142.436-.372-.269-.37.269.142-.436-.37-.269h.458Z" transform="translate(6.361 -5.905)" fill="#fff"/><path d="M1.408,5.905l.142.436h.456l-.37.269.142.436-.37-.269-.37.269.142-.436L.808,6.341h.458Z" transform="translate(3.925 -5.905)" fill="#fff"/><path d="M1.3,5.905l.14.436h.458l-.37.269.142.436L1.3,6.776l-.372.269.142-.436-.37-.269h.458Z" transform="translate(1.492 -5.905)" fill="#fff"/><path d="M1.072,6.26l.135.451L.846,6.44.6,6.621l.361-.7.023.09h.451Z" transform="translate(-0.598 -5.564)" fill="#fff"/></g><g transform="translate(0.499 6.496)"><path d="M1.519,6l.142.436h.458l-.37.271.142.433-.372-.269-.37.269.142-.433-.37-.271h.458Z" transform="translate(6.72 -6.001)" fill="#fff"/><path d="M1.408,6l.142.436h.456l-.37.271.142.433-.37-.269-.37.269.142-.433L.808,6.437h.458Z" transform="translate(4.284 -6.001)" fill="#fff"/><path d="M1.3,6l.14.436h.458l-.37.271.142.433L1.3,6.872l-.372.269.142-.433-.37-.271h.458Z" transform="translate(1.851 -6.001)" fill="#fff"/><path d="M1.18,6l.142.436h.458l-.372.271.142.433-.37-.269-.37.269.142-.433-.37-.271h.456Z" transform="translate(-0.582 -6.001)" fill="#fff"/></g><g transform="translate(0.499 8.663)"><path d="M1.519,6.1l.142.436h.458l-.37.269.142.436-.372-.269-.37.269L1.291,6.8l-.37-.269h.458Z" transform="translate(6.72 -6.097)" fill="#fff"/><path d="M1.408,6.1l.142.436h.456l-.37.269.142.436-.37-.269-.37.269L1.18,6.8.808,6.533h.458Z" transform="translate(4.284 -6.097)" fill="#fff"/><path d="M1.3,6.1l.14.436h.458l-.37.269.142.436L1.3,6.968l-.372.269L1.065,6.8l-.37-.269h.458Z" transform="translate(1.851 -6.097)" fill="#fff"/><path d="M1.18,6.1l.142.436h.458L1.408,6.8l.142.436-.37-.269-.37.269L.952,6.8l-.37-.269h.456Z" transform="translate(-0.582 -6.097)" fill="#fff"/></g><g transform="translate(0 7.579)"><path d="M1.462,6.049l.142.436h.458l-.37.269.14.436-.37-.269-.37.269.142-.436-.37-.269h.458Z" transform="translate(6.002 -6.049)" fill="#fff"/><path d="M1.352,6.049l.14.436H1.95l-.37.269.142.436-.37-.269-.37.269.14-.436-.37-.269h.458Z" transform="translate(3.566 -6.049)" fill="#fff"/><path d="M1.237,6.049l.142.436h.458l-.37.269.14.436-.37-.269-.37.269.142-.436-.37-.269H1.1Z" transform="translate(1.133 -6.049)" fill="#fff"/><path d="M.605,6.339l.158.451-.2-.158.068-.564H.989Z" transform="translate(-0.56 -5.641)" fill="#fff"/></g><g transform="translate(1.772 5.415)"><path d="M1.462,5.953l.142.436h.458l-.37.269.14.436-.37-.271-.37.271.142-.436-.37-.269h.458Z" transform="translate(4.23 -5.953)" fill="#fff"/><path d="M1.352,5.953l.14.436H1.95l-.37.269.142.436-.37-.271-.37.271.14-.436-.37-.269h.458Z" transform="translate(1.795 -5.953)" fill="#fff"/><path d="M1.237,5.953l.142.436h.458l-.37.269.14.436-.37-.271-.37.271.142-.436-.37-.269H1.1Z" transform="translate(-0.638 -5.953)" fill="#fff"/></g><g transform="translate(1.817 3.248)"><path d="M1.462,5.857l.142.436h.458l-.37.269L1.833,7l-.37-.269L1.092,7l.142-.436-.37-.269h.458Z" transform="translate(4.185 -5.857)" fill="#fff"/><path d="M1.352,5.857l.14.436H1.95l-.37.269L1.722,7l-.37-.269L.982,7l.14-.436-.37-.269h.458Z" transform="translate(1.75 -5.857)" fill="#fff"/><path d="M1.48,6.735,1.566,7,1.2,6.735l-.011-.007-.012.007L.823,7l.086-.262.056-.174L.64,6.327l.025-.034h.386l.142-.436.142.436h.458l-.37.269Z" transform="translate(-0.64 -5.857)" fill="#fff"/></g><g transform="translate(4.318 1.081)"><path d="M1.462,5.761,1.6,6.2h.458l-.37.271.14.433-.37-.269-.37.269.142-.433L.864,6.2h.458Z" transform="translate(1.684 -5.761)" fill="#fff"/><path d="M1.352,5.761l.14.436H1.95l-.37.271.142.433-.37-.269L.982,6.9l.14-.433L.751,6.2h.458Z" transform="translate(-0.751 -5.761)" fill="#fff"/></g></g></g></g></svg>