<svg xmlns="http://www.w3.org/2000/svg" width="19.999" height="20" viewBox="0 0 19.999 20"><g transform="translate(-5440.689 -16246.494)"><g transform="translate(5440.689 16246.494)"><path d="M419.3,427.164a10.163,10.163,0,0,0-9.552,6.906h19.1A10.165,10.165,0,0,0,419.3,427.164Z" transform="translate(-409.295 -427.164)" fill="#040506"/><path d="M409.743,440.977a10.059,10.059,0,0,0,19.1,0Z" transform="translate(-409.295 -427.883)" fill="#ffc100"/><path d="M429.15,437.524a10.617,10.617,0,0,0-.572-3.454H409.722a10.7,10.7,0,0,0,0,6.907h18.855A10.638,10.638,0,0,0,429.15,437.524Z" transform="translate(-409.15 -427.524)" fill="#d1000e"/></g></g></svg>