<svg xmlns="http://www.w3.org/2000/svg" width="20.301" height="20.301" viewBox="0 0 20.301 20.301"><g transform="translate(-5517.849 -16243.85)"><g transform="translate(5517.442 16241.359)"><g transform="translate(0.558 2.641)"><circle cx="10" cy="10" r="10" fill="#fff" stroke="#636461" stroke-width="0.3"/></g><g transform="translate(7.088 9.167)"><path d="M3.994,2.933a3.446,3.446,0,0,0-3.13,1.99h0a2.388,2.388,0,0,0,.715,1.9,1.754,1.754,0,0,0,2.415-.447,1.832,1.832,0,0,1,2.236-.6c.425.2,1.006.715.872,2.057h0a3.533,3.533,0,0,0,.313-1.453A3.44,3.44,0,0,0,3.994,2.933Z" transform="translate(-0.551 -2.933)" fill="#c60c30"/><path d="M7.4,5.928c.134-1.341-.447-1.856-.872-2.057a1.832,1.832,0,0,0-2.236.6,1.754,1.754,0,0,1-2.415.447,2.388,2.388,0,0,1-.715-1.9h0a3.458,3.458,0,0,0,3.13,4.9A3.477,3.477,0,0,0,7.4,5.928Z" transform="translate(-0.85 -1.032)" fill="#003478"/></g><g transform="translate(3.377 14.045)"><g transform="translate(0 0)"><g transform="translate(0 0)"><rect width="0.564" height="3.436" transform="translate(1.426 0.313) rotate(-33.69)"/><rect width="0.564" height="3.437" transform="translate(0 1.263) rotate(-33.69)"/></g><g transform="translate(0.713 0.476)"><rect width="0.564" height="1.572" transform="translate(0 0.313) rotate(-33.69)"/><path d="M.762,3.557l.872,1.308.472-.313-.874-1.31Z" transform="translate(0.271 -1.693)"/></g></g><g transform="translate(10.492 0)"><rect width="1.572" height="0.564" transform="matrix(0.55, -0.835, 0.835, 0.55, 2.46, 2.26)"/><rect width="1.573" height="0.564" transform="translate(1.429 3.812) rotate(-56.499)"/><rect width="1.572" height="0.565" transform="translate(1.745 1.784) rotate(-56.435)"/><rect width="1.572" height="0.564" transform="translate(0.715 3.338) rotate(-56.499)"/><rect width="1.572" height="0.565" transform="translate(0 2.863) rotate(-56.31)"/><rect width="1.572" height="0.566" transform="translate(1.031 1.31) rotate(-56.435)"/></g></g><g transform="translate(3.377 7.034)"><g transform="translate(10.494)"><path d="M3.553,5.725l-.472.313-1.9-2.866.472-.313Z" transform="translate(-0.47 -2.387)"/><g transform="translate(0)"><rect width="0.565" height="1.572" transform="matrix(0.835, -0.55, 0.55, 0.835, 2.458, 1.865)"/><path d="M1.689,2.838l-.472.311.867,1.312.472-.311Z" transform="translate(0.211 -2.838)"/><rect width="0.563" height="1.573" transform="translate(1.03 2.81) rotate(-33.501)"/><rect width="0.564" height="1.572" transform="translate(0 1.258) rotate(-33.69)"/></g></g><rect width="0.564" height="3.436" transform="translate(3.337 0.953) rotate(33.879)"/><path d="M1.185,6.029.716,5.714,2.627,2.859l.469.313Z" transform="translate(-0.005 -2.383)"/><path d="M1.153,6.008.684,5.693,2.6,2.838l.469.313Z" transform="translate(-0.684 -2.838)"/></g></g></g></svg>