<svg xmlns="http://www.w3.org/2000/svg" width="20" height="20" viewBox="0 0 20 20"><g transform="translate(-5440.689 -15998.455)"><g transform="translate(5440.689 15998.455)"><path d="M409.15,189.265a10.162,10.162,0,0,0,6.906,9.548v-19.1A10.16,10.16,0,0,0,409.15,189.265Z" transform="translate(-409.15 -179.266)" fill="#062a6c"/><path d="M429.869,189.265a10.163,10.163,0,0,0-6.906-9.548v19.1A10.165,10.165,0,0,0,429.869,189.265Z" transform="translate(-409.869 -179.266)" fill="#dd142c"/><path d="M419.51,179.125a10.642,10.642,0,0,0-3.454.571v18.856a10.7,10.7,0,0,0,6.907,0V179.7A10.659,10.659,0,0,0,419.51,179.125Z" transform="translate(-409.51 -179.125)" fill="#fff"/></g></g></svg>