<svg xmlns="http://www.w3.org/2000/svg" width="24.417" height="24.408" viewBox="0 0 24.417 24.408"><path d="M0,0H24.417V24.408H0Z" transform="translate(0 0)" fill="none"/><path d="M0,0H5.619V12.339H0Z" transform="translate(9.911 10.147)" fill="#cbcbcb"/><path d="M0,12.362H3.371a2.254,2.254,0,0,0,2.248-2.248V0H0Z" transform="translate(18 10.124)" fill="#636461"/><path d="M19.526,0H2.3A2.279,2.279,0,0,0,0,2.248V5.619H21.823V2.248A2.279,2.279,0,0,0,19.526,0Z" transform="translate(1.796 1.796)" fill="#636461"/><path d="M0,10.114a2.254,2.254,0,0,0,2.248,2.248H5.619V0H0Z" transform="translate(1.796 10.124)" fill="#cbcbcb"/></svg>