<svg xmlns="http://www.w3.org/2000/svg" width="10" height="8.334" viewBox="0 0 10 8.334"><g transform="translate(-6138.718 -16250.267)"><path d="M-13.845,3.382V-2.066a.781.781,0,0,0-.751-.805h-1.751v1.042h1.5V4.423h1Zm-2.631,1.042v-7.8a.517.517,0,0,0-.492-.538A.473.473,0,0,0-17.1-3.9l-3,.81a.534.534,0,0,0-.379.524V4.424ZM-17.851.652a.387.387,0,0,1-.375-.4.388.388,0,0,1,.375-.4.388.388,0,0,1,.375.4A.387.387,0,0,1-17.851.652Z" transform="translate(6159.196 16254.178)" fill="#636461"/><path d="M78.931,49.691,77,47.75a.323.323,0,0,0-.552.228v1.311H72.421v1.289h4.031v1.313a.323.323,0,0,0,.552.228l1.927-1.943A.343.343,0,0,0,78.931,49.691Z" transform="translate(6069.688 16204.898)" fill="#636461"/></g></svg>