<svg xmlns="http://www.w3.org/2000/svg" width="126" height="29" viewBox="0 0 126 29"><g transform="translate(-143.333 -398.305)"><path d="M207.149,416.5a3.536,3.536,0,1,1,3.546-3.536,3.544,3.544,0,0,1-3.546,3.536m7.452-3.536a7.451,7.451,0,1,0-7.452,7.435,7.369,7.369,0,0,0,3.538-.929v1.519h3.908v-7.749c0-.094.006-.18.006-.276" transform="translate(28.934 3.62)" fill="#fff"/><rect width="3.907" height="20.89" transform="translate(175.995 403.689)" fill="#fff"/><path d="M176.427,405.527a7.716,7.716,0,1,0,7.733,7.716,7.725,7.725,0,0,0-7.733-7.716m0,3.9a3.817,3.817,0,1,1-3.824,3.818,3.826,3.826,0,0,1,3.824-3.818" transform="translate(13.016 3.62)" fill="#fff"/><path d="M190.315,401.983H176.93v3.9h4.739v16.991h3.908V405.882h4.738Z" transform="translate(17.255 1.706)" fill="#fff"/><path d="M196.22,418.291a5.572,5.572,0,1,1,5.2-7.522h4.009a9.469,9.469,0,1,0,0,3.9h-4.011A5.562,5.562,0,0,1,196.22,418.291Z" transform="translate(22.246 2.39)" fill="#fff"/><path d="M227.93,413.173a3.736,3.736,0,0,1-1.086,2.766,3.834,3.834,0,0,1-4.995.347l4.239-4.229,1.1-1.1,2.621-2.615.142-.142c-.12-.139-.216-.294-.347-.425a7.646,7.646,0,0,0-1.513-1.146c-.054-.032-.109-.055-.165-.086A7.762,7.762,0,1,0,231.1,410Zm-6.507-2.645a3.831,3.831,0,0,1,3.536-1.023l-4.561,4.551A3.81,3.81,0,0,1,221.423,410.528Z" transform="translate(37.495 3.622)" fill="#fff"/><path d="M210.633,412.737v0h0c.039-3.912,3.632-7.207,7.891-7.207v3.9c-2.127,0-4,1.576-4,3.37h0v8.163h-3.894v-8.222Z" transform="translate(34.653 3.62)" fill="#fff"/><path d="M165.583,411a9.009,9.009,0,0,1,.314,2.254,9.539,9.539,0,1,1-6.974-8.917l2.98-2.942a12.976,12.976,0,1,0,7.787,11.859,12.787,12.787,0,0,0-1.111-5.211Z" transform="translate(0 1.046)" fill="#fff"/><path d="M165.874,398.3a4.026,4.026,0,0,0-4.034,4.021,3.974,3.974,0,0,0,.206,1.214l-6.284,6.269a5.127,5.127,0,1,0,2.634,2.611l6.281-6.267a4.017,4.017,0,1,0,1.2-7.847" transform="translate(2.847)" fill="#fff"/></g></svg>